<svg height="512pt" viewBox="-52 0 512 512" width="512pt" xmlns="http://www.w3.org/2000/svg"><path d="m344.011719 425.460938h-279.042969c-27.648438 0-50.058594-22.414063-50.058594-50.0625 0-27.648438 22.414063-50.0625 50.058594-50.0625h279.042969c27.648437 0 50.0625 22.414062 50.0625 50.0625 0 27.648437-22.414063 50.0625-50.0625 50.0625zm0 0" fill="#e7896e"/><path d="m14.910156 375.398438c0 27.648437 22.414063 50.0625 50.058594 50.0625h49.441406c-8.84375-19.332032-.289062-44.375 21.996094-53.15625 18.84375-7.421876 21.203125-22.296876 21.203125-22.296876l2.867187-24.667968h-95.507812c-27.644531-.003906-50.058594 22.410156-50.058594 50.058594zm0 0" fill="#dd6642"/><path d="m254.640625 303.917969-83.625 36.800781s38.78125 19.191406 66.988281 53.085938c8.632813 10.371093 24.640625 10.371093 33.269532 0 28.210937-33.894532 66.988281-53.085938 66.988281-53.085938zm0 0" fill="#f9ee80"/><path d="m401.230469 305.90625c-5.378907-46.878906-47.648438-67.480469-47.648438-67.480469h-298.183593s-42.265626 20.601563-47.648438 67.480469c-4.808594 41.933594 59.859375 59.269531 90.0625 28.363281 4.902344-5.015625 12.910156-5.167969 17.832031-.171875 7.550781 7.660156 20.675781 15.910156 41.96875 15.910156 18.507813 0 29.988281-7.4375 36.953125-15.28125 5.246094-5.914062 14.601563-5.914062 19.847656 0 6.964844 7.847657 18.449219 15.28125 36.957032 15.28125 21.289062 0 34.417968-8.25 41.964844-15.910156 4.925781-4.996094 12.933593-4.84375 17.835937.171875 30.203125 30.90625 94.871094 13.570313 90.058594-28.363281zm0 0" fill="#73da8c"/><path d="m173.0625 238.425781h-117.664062s-42.269532 20.601563-47.648438 67.480469c-4.8125 41.933594 59.859375 59.269531 90.058594 28.363281 4.902344-5.015625 12.910156-5.167969 17.835937-.171875 7.550781 7.660156 20.675781 15.910156 41.964844 15.910156.003906 0-22.191406-60.03125 15.453125-111.582031zm0 0" fill="#29ce69"/><path d="m350.878906 266.257812h-292.777344c-47.980468 0-47.980468-47.984374-47.980468-47.984374 0-107.347657 87.023437-194.371094 194.371094-194.371094 107.347656 0 194.371093 87.023437 194.371093 194.371094 0 0 0 47.984374-47.984375 47.984374zm0 0" fill="#ffc7a4"/><path d="m129.691406 201.316406c-42.003906-57.714844-1.703125-161.671875-1.65625-161.796875-69.332031 29.695313-117.914062 98.554688-117.914062 178.753907 0 0 0 47.984374 47.984375 47.984374h152.910156c-26.863281-22.089843-54.160156-27.617187-81.324219-64.941406zm0 0" fill="#ffaa75"/><path d="m15.257812 464.648438c9.945313 24.253906 31.894532 39.851562 56.085938 39.851562h266.144531c24.195313 0 46.144531-15.597656 56.085938-39.851562 0 0 18.929687-39.1875-23.023438-39.1875h-332.269531c-41.523438 0-23.023438 39.1875-23.023438 39.1875zm0 0" fill="#ffc7a4"/><path d="m92.253906 464.648438s-18.5-39.1875 23.023438-39.1875h-76.996094c-41.523438 0-23.023438 39.1875-23.023438 39.1875 9.945313 24.253906 31.894532 39.851562 56.085938 39.851562h77c-24.199219 0-46.144531-15.597656-56.089844-39.851562zm0 0" fill="#ffaa75"/><g fill="#ffe4d3"><path d="m137.113281 131.757812c0 9.058594-7.34375 16.402344-16.402343 16.402344-9.0625 0-16.40625-7.34375-16.40625-16.402344 0-9.0625 7.34375-16.40625 16.40625-16.40625 9.058593 0 16.402343 7.34375 16.402343 16.40625zm0 0"/><path d="m282.703125 105.226562c0 9.058594-7.347656 16.402344-16.40625 16.402344s-16.402344-7.34375-16.402344-16.402344c0-9.058593 7.34375-16.40625 16.402344-16.40625s16.40625 7.347657 16.40625 16.40625zm0 0"/><path d="m220.894531 23.902344c0 9.0625-7.34375 16.40625-16.402343 16.40625-9.058594 0-16.40625-7.34375-16.40625-16.40625 0-9.058594 7.347656-16.402344 16.40625-16.402344 9.058593 0 16.402343 7.34375 16.402343 16.402344zm0 0"/><path d="m72.039062 98.949219c0 9.058593-7.347656 16.402343-16.40625 16.402343-9.058593 0-16.402343-7.34375-16.402343-16.402343 0-9.0625 7.34375-16.40625 16.402343-16.40625 9.058594 0 16.40625 7.34375 16.40625 16.40625zm0 0"/><path d="m369.753906 98.949219c0 9.058593-7.34375 16.402343-16.40625 16.402343-9.058594 0-16.402344-7.34375-16.402344-16.402343 0-9.0625 7.34375-16.40625 16.402344-16.40625 9.0625 0 16.40625 7.34375 16.40625 16.40625zm0 0"/><path d="m187.417969 74.726562c0 9.058594-7.34375 16.402344-16.402344 16.402344s-16.402344-7.34375-16.402344-16.402344c0-9.0625 7.34375-16.40625 16.402344-16.40625s16.402344 7.34375 16.402344 16.40625zm0 0"/></g><path d="m148.675781 215.566406c0-9.078125-9.242187-16.433594-20.640625-16.433594-11.402344 0-20.644531 7.355469-20.644531 16.433594s9.242187 16.4375 20.644531 16.4375c11.398438 0 20.640625-7.359375 20.640625-16.4375zm0 0" fill="#ff83b4"/><path d="m301.589844 215.566406c0-9.078125-9.242188-16.433594-20.640625-16.433594-11.398438 0-20.640625 7.355469-20.640625 16.433594s9.242187 16.4375 20.640625 16.4375c11.398437 0 20.640625-7.359375 20.640625-16.4375zm0 0" fill="#ff83b4"/><path d="m186.832031 206.039062c3.917969 5.96875 10.519531 9.53125 17.660157 9.53125 7.136718 0 13.738281-3.5625 17.660156-9.53125 2.273437-3.460937 1.308594-8.109374-2.152344-10.386718-1.269531-.832032-6.882812-2.992188-10.386719 2.152344-1.679687 2.46875-4.128906 2.765624-5.121093 2.765624-.996094 0-3.484376-.269531-5.125-2.765624-2.273438-3.460938-6.921876-4.425782-10.382813-2.152344-3.464844 2.277344-4.425781 6.925781-2.152344 10.386718zm0 0"/><path d="m129.691406 190.710938c-2.929687 2.929687-2.929687 7.679687 0 10.605468 2.929688 2.929688 7.675782 2.929688 10.605469 0 .863281-.859375 1.867187-.988281 2.386719-.988281.523437 0 1.457031.207031 2.390625.988281 4.734375 3.964844 9.140625 1.464844 10.605469 0 2.929687-2.925781 2.929687-7.675781 0-10.605468-3.46875-3.472657-8.085938-5.382813-12.992188-5.382813-4.910156 0-9.527344 1.910156-12.996094 5.382813zm0 0"/><path d="m253.304688 190.710938c-2.929688 2.929687-2.929688 7.679687 0 10.605468 2.929687 2.929688 7.675781 2.929688 10.605468 0 .859375-.859375 1.863282-.988281 2.386719-.988281s1.453125.207031 2.386719.988281c4.734375 3.964844 9.144531 1.464844 10.609375 0 2.929687-2.925781 2.929687-7.675781 0-10.605468-3.472657-3.472657-8.085938-5.382813-12.996094-5.382813-4.90625 0-9.523437 1.910156-12.992187 5.382813zm0 0"/><path d="m120.710938 107.851562c-13.183594 0-23.90625 10.722657-23.90625 23.90625 0 13.179688 10.726562 23.902344 23.90625 23.902344 13.179687 0 23.902343-10.722656 23.902343-23.902344 0-13.183593-10.722656-23.90625-23.902343-23.90625zm0 32.808594c-4.910157 0-8.90625-3.996094-8.90625-8.902344 0-4.910156 3.996093-8.90625 8.90625-8.90625 4.910156 0 8.902343 3.996094 8.902343 8.90625 0 4.90625-3.992187 8.902344-8.902343 8.902344zm0 0"/><path d="m290.203125 105.226562c0-13.179687-10.726563-23.90625-23.90625-23.90625s-23.902344 10.726563-23.902344 23.90625c0 13.179688 10.722657 23.902344 23.902344 23.902344s23.90625-10.722656 23.90625-23.902344zm-23.90625 8.902344c-4.910156 0-8.902344-3.992187-8.902344-8.902344 0-4.910156 3.992188-8.90625 8.902344-8.90625s8.90625 3.996094 8.90625 8.90625c0 4.910157-3.996094 8.902344-8.90625 8.902344zm0 0"/><path d="m171.015625 50.820312c-13.183594 0-23.90625 10.722657-23.90625 23.902344 0 13.179688 10.726563 23.90625 23.90625 23.90625s23.902344-10.726562 23.902344-23.90625c0-13.179687-10.722657-23.902344-23.902344-23.902344zm0 32.808594c-4.910156 0-8.90625-3.996094-8.90625-8.902344 0-4.910156 3.996094-8.90625 8.90625-8.90625s8.902344 3.996094 8.902344 8.90625c0 4.90625-3.992188 8.902344-8.902344 8.902344zm0 0"/><path d="m381.589844 418.945312c12.226562-10.5625 19.984375-26.160156 19.984375-43.546874 0-11.230469-3.277344-22.121094-9.335938-31.414063 12.171875-9.75 18.199219-23.628906 16.445313-38.933594-1.925782-16.773437-8.300782-32.109375-18.964844-45.695312 4.410156-4.363281 16.492188-17.066407 16.644531-41.082031.238281-38.71875-10.941406-76.160157-31.667969-108.582032 1.632813-3.230468 2.558594-6.878906 2.558594-10.742187 0-13.179688-10.722656-23.90625-23.90625-23.90625-2.027344 0-4 .257812-5.882812.734375-32.328125-32.429688-74.617188-52.882813-119.882813-58.050782-2.734375-10.195312-12.046875-17.726562-23.089843-17.726562-11.042969 0-20.359376 7.53125-23.089844 17.722656-45.226563 5.171875-87.582032 25.632813-119.894532 58.054688-1.878906-.476563-3.847656-.734375-5.875-.734375-13.179687 0-23.90625 10.722656-23.90625 23.90625 0 3.867187.929688 7.519531 2.570313 10.753906-8.53125 13.351563-15.476563 27.644531-20.640625 42.582031-1.355469 3.914063.722656 8.1875 4.636719 9.539063.8125.28125 1.636719.414062 2.449219.414062 3.109374 0 6.015624-1.949219 7.089843-5.050781 4.433594-12.824219 10.292969-25.132812 17.417969-36.710938 3.140625 1.519532 6.664062 2.375 10.382812 2.375 13.183594 0 23.90625-10.722656 23.90625-23.902343 0-5.585938-1.933593-10.726563-5.15625-14.800781 29.414063-28.535157 67.390626-46.609376 107.898438-51.425782 3.515625 8.828125 12.144531 15.085938 22.210938 15.085938 10.066406 0 18.691406-6.257813 22.210937-15.085938 40.542969 4.816406 78.46875 22.882813 107.894531 51.425782-3.222656 4.074218-5.152344 9.214843-5.152344 14.800781 0 13.179687 10.722657 23.902343 23.902344 23.902343 3.726563 0 7.253906-.855468 10.402344-2.382812 18.085938 29.375 27.546875 63.027344 27.609375 97.78125.054687 28.59375-23.835937 40.507812-40.480469 40.507812h-292.777344c-27.023437 0-40.273437-20.332031-40.480468-40.480468-.109375-10.90625.945312-21.839844 2.8125-32.492188.714844-4.082031-2.011719-7.96875-6.09375-8.683594-4.082032-.71875-7.964844 2.015626-8.679688 6.09375-2.019531 11.503907-3.039062 23.308594-3.039062 35.082032 0 .5625.390625 27.425781 16.648437 41.085937-10.660156 13.574219-17.046875 28.902344-18.96875 45.691407-1.757812 15.300781 4.273438 29.179687 16.441407 38.929687-6.058594 9.285156-9.335938 20.144531-9.335938 31.414063 0 17.382812 7.753906 32.976562 19.972656 43.539062-8.957031 1.738281-15.519531 5.804688-19.558594 12.179688-9.074218 14.316406-.808593 33.566406.566407 36.542968 11.117187 26.941406 35.8125 44.339844 62.957031 44.339844h266.144531c27.136719 0 51.820313-17.386719 62.941407-44.3125 1.445312-3.066406 9.800781-22.179688.832031-36.472656-4.023438-6.417969-10.628907-10.515625-19.671875-12.269532zm-325.957032-311.09375c-4.910156 0-8.902343-3.996093-8.902343-8.902343 0-4.910157 3.992187-8.90625 8.902343-8.90625 4.910157 0 8.90625 3.996093 8.90625 8.90625 0 4.90625-3.996093 8.902343-8.90625 8.902343zm148.859376-75.042968c-4.910157 0-8.90625-3.996094-8.90625-8.902344 0-4.910156 3.996093-8.90625 8.90625-8.90625 4.910156 0 8.902343 3.996094 8.902343 8.902344 0 4.910156-3.992187 8.90625-8.902343 8.90625zm139.953124 66.140625c0-4.910157 3.996094-8.90625 8.902344-8.90625 4.910156 0 8.90625 3.996093 8.90625 8.90625 0 4.910156-3.996094 8.902343-8.90625 8.902343-4.90625 0-8.902344-3.996093-8.902344-8.902343zm-329.242187 207.8125c1.625-14.183594 7.105469-27.164063 16.292969-38.683594 6.988281 3.457031 15.710937 5.679687 26.609375 5.679687h292.773437c10.898438 0 19.625-2.222656 26.609375-5.683593 9.1875 11.527343 14.667969 24.515625 16.292969 38.6875 2.109375 18.410156-12.703125 27.550781-19.167969 30.628906-16.519531 7.855469-42.484375 7.59375-58.078125-8.363281-3.832031-3.921875-8.941406-6.089844-14.386718-6.101563-.015626 0-.027344 0-.042969 0-5.347657 0-10.355469 2.097657-14.109375 5.902344-6.148438 6.242187-17.492188 13.675781-36.625 13.675781-13.285156 0-23.832032-4.292968-31.34375-12.757812-3.925782-4.421875-9.585938-6.957032-15.535156-6.957032-5.949219 0-11.613282 2.535157-15.535157 6.957032-7.511719 8.464844-18.058593 12.757812-31.34375 12.757812-19.132812 0-30.480469-7.433594-36.625-13.675781-3.753906-3.808594-8.765625-5.902344-14.109375-5.902344-.015625 0-.03125 0-.042968 0-5.449219.011719-10.558594 2.179688-14.390626 6.101563-15.59375 15.957031-41.558593 16.21875-58.074218 8.363281-6.464844-3.078125-21.28125-12.21875-19.167969-30.628906zm298.785156 39.667969c-13.992187 9.296874-32.792969 23.730468-48.476562 42.578124-2.6875 3.222657-6.648438 5.074219-10.871094 5.074219s-8.1875-1.851562-10.871094-5.074219c-16.148437-19.40625-35.566406-34.121093-49.765625-43.433593 2.414063-1.945313 4.46875-3.953125 6.171875-5.871094 1.480469-1.664063 3.339844-1.914063 4.316407-1.914063.976562 0 2.835937.25 4.3125 1.914063 7.207031 8.121094 20.445312 17.804687 42.566406 17.804687 24.320312 0 39.148437-9.867187 47.308594-18.148437.910156-.921875 2.125-1.433594 3.425781-1.433594h.011719c1.386718.003907 2.695312.566407 3.691406 1.585938 2.554687 2.613281 5.296875 4.914062 8.179687 6.917969zm72.832031 114.957031c-.066406.136719-.128906.273437-.1875.414062-8.761718 21.382813-28.054687 35.199219-49.144531 35.199219h-266.144531c-21.089844 0-40.382812-13.816406-49.144531-35.199219-.046875-.105469-.101563-.230469-.148438-.335937-1.730469-3.714844-5.722656-15.792969-1.546875-22.339844 2.609375-4.089844 8.589844-6.164062 17.777344-6.164062h250.769531c4.144531 0 7.5-3.359376 7.5-7.5 0-4.140626-3.355469-7.5-7.5-7.5h-224.097656c-23.460937-.011719-42.542969-19.097657-42.542969-42.5625 0-8.527344 2.53125-16.730469 7.210938-23.695313 21.71875 9.523437 53.402344 8.429687 73.554687-12.191406.996094-1.019531 2.304688-1.582031 3.691407-1.585938h.011718c1.296875 0 2.511719.511719 3.425782 1.433594 8.15625 8.28125 22.988281 18.148437 47.308593 18.148437 8.410157 0 15.53125-1.40625 21.53125-3.585937 13.339844 8.132813 35.410157 23.429687 53.097657 44.679687 5.542968 6.660157 13.707031 10.480469 22.398437 10.480469s16.855469-3.820312 22.398437-10.480469c17.550782-21.085937 39.46875-36.328124 52.675782-44.421874 16.789062 5.453124 35.371094 3.789062 49.652344-2.480469 4.679687 6.972656 7.207031 15.207031 7.207031 23.699219 0 23.464843-19.082031 42.550781-42.542969 42.5625h-22.539062c-4.140626 0-7.5 3.359374-7.5 7.5 0 4.140624 3.359374 7.5 7.5 7.5h49.058593c6.421875 0 14.753907 1.074218 17.992188 6.203124 4.121093 6.527344.027343 18.542969-1.722657 22.222657zm0 0"/></svg>