<svg height="512pt" viewBox="-42 0 512 512" width="512pt" xmlns="http://www.w3.org/2000/svg"><path d="m55.125 161.113281 42.324219 298.261719c3.675781 25.886719 25.835937 45.125 51.980469 45.125h129.164062c26.144531 0 48.304688-19.238281 51.980469-45.125l42.324219-298.261719zm0 0" fill="#73da8c"/><path d="m218.542969 219.375c36.15625-10.8125 63.890625-27.242188 63.890625-27.242188v-31.019531h-227.308594l42.324219 298.261719c3.675781 25.886719 25.835937 45.125 51.980469 45.125h48.902343c-7.152343-23.554688 5.746094-49.285156 29.90625-57.171875 33.214844-10.839844 54.585938-33.390625 54.195313-33.390625-58.441406-10.441406-91.109375-55.546875-109.234375-98.683594-16.414063-39.066406 4.746093-83.734375 45.34375-95.878906zm0 0" fill="#29ce69"/><path d="m287.710938 7.5h-147.398438c-26.945312 0-50.679688 17.714844-58.347656 43.546875l-26.839844 90.4375h317.773438l-26.839844-90.4375c-7.664063-25.832031-31.402344-43.546875-58.347656-43.546875zm0 0" fill="#73da8c"/><path d="m238.707031 7.5h-98.394531c-26.945312 0-50.679688 17.714844-58.347656 43.546875l-26.839844 90.4375h98.394531l26.839844-90.4375c7.664063-25.832031 31.402344-43.546875 58.347656-43.546875zm0 0" fill="#29ce69"/><path d="m374.441406 192.132812h-320.859375c-25.449219 0-46.082031-20.628906-46.082031-46.082031 0-25.449219 20.632812-46.082031 46.082031-46.082031h320.859375c25.449219 0 46.082032 20.632812 46.082032 46.082031 0 25.453125-20.632813 46.082031-46.082032 46.082031zm0 0" fill="#b9ecc2"/><path d="m111.707031 146.050781c0-25.449219 20.632813-46.082031 46.082031-46.082031h-104.207031c-25.449219 0-46.082031 20.632812-46.082031 46.082031 0 25.453125 20.632812 46.082031 46.082031 46.082031h104.207031c-25.449218 0-46.082031-20.628906-46.082031-46.082031zm0 0" fill="#8fe2a3"/><path d="m214.011719 65.222656c19.578125 0 35.453125-15.871094 35.453125-35.449218v-22.273438h-70.902344v22.273438c0 19.578124 15.871094 35.449218 35.449219 35.449218zm0 0" fill="#00c140"/><path d="m52.800781 305.589844 9.546875 66.34375c3.46875 24.105468 24.125 42.003906 48.484375 42.003906h206.359375c24.359375 0 45.015625-17.898438 48.484375-42.003906l9.550781-66.34375c2.425782-16.855469-10.652343-31.949219-27.679687-31.949219h-267.066406c-17.03125 0-30.109375 15.09375-27.679688 31.949219zm0 0" fill="#f9ee80"/><path d="m143.003906 371.933594-9.546875-66.34375c-2.425781-16.855469 10.648438-31.949219 27.679688-31.949219h-80.65625c-17.03125 0-30.109375 15.09375-27.679688 31.949219l9.546875 66.34375c3.46875 24.105468 24.125 42.003906 48.484375 42.003906h80.65625c-24.355469 0-45.011719-17.898438-48.484375-42.003906zm0 0" fill="#f4e74d"/><path d="m214.011719 378.113281c-15.519531 0-28.101563-12.578125-28.101563-28.097656v-20.429687c0-4.238282 3.4375-7.671876 7.671875-7.671876h40.859375c4.238282 0 7.671875 3.433594 7.671875 7.671876v20.429687c0 15.519531-12.582031 28.097656-28.101562 28.097656zm0 0" fill="#454545"/><path d="m149.988281 350.015625c0-13.183594-13.417969-23.871094-29.972656-23.871094s-29.972656 10.6875-29.972656 23.871094 13.417969 23.867187 29.972656 23.867187 29.972656-10.683593 29.972656-23.867187zm0 0" fill="#fdb2db"/><path d="m337.980469 350.015625c0-13.183594-13.417969-23.871094-29.972657-23.871094-16.554687 0-29.972656 10.6875-29.972656 23.871094s13.417969 23.867187 29.972656 23.867187c16.554688 0 29.972657-10.683593 29.972657-23.867187zm0 0" fill="#fdb2db"/><path d="m294.667969 309.460938c-4.140625 0-7.5 3.359374-7.5 7.5v12.449218c0 4.144532 3.359375 7.5 7.5 7.5 4.144531 0 7.5-3.355468 7.5-7.5v-12.449218c0-4.140626-3.355469-7.5-7.5-7.5zm0 0"/><path d="m133.355469 309.460938c-4.144531 0-7.5 3.359374-7.5 7.5v12.449218c0 4.144532 3.355469 7.5 7.5 7.5 4.140625 0 7.5-3.355468 7.5-7.5v-12.449218c0-4.140626-3.359375-7.5-7.5-7.5zm0 0"/><path d="m428.023438 146.050781c0-56.703125-61.847657-53.582031-61.847657-53.582031l-12.925781-43.558594c-4.226562-14.234375-12.75-26.453125-24.648438-35.335937-11.902343-8.878907-26.042968-13.574219-40.890624-13.574219h-147.398438c-14.847656 0-28.988281 4.695312-40.886719 13.578125-11.902343 8.882813-20.425781 21.101563-24.652343 35.335937l-12.925782 43.554688s-61.847656-2.171875-61.847656 53.582031c0 29.355469 23.730469 53.261719 53.015625 53.570313l10.085937 71.082031c-3.519531 1.980469-21.488281 9.929687-17.726562 35.957031l9.550781 66.339844c2.542969 17.683594 13.101563 32.824219 28.5625 41.359375l6.535157 46.070313c4.175781 29.398437 29.714843 51.570312 59.40625 51.570312h129.164062c29.691406 0 55.230469-22.171875 59.40625-51.570312l6.546875-46.15625c14.992187-8.375 25.980469-23.398438 28.550781-41.273438l9.550782-66.339844c3.71875-26.027344-14.207032-33.976562-17.726563-35.957031l10.089844-71.082031c29.28125-.308594 53.011719-24.214844 53.011719-53.570313zm-186.058594-131.050781v14.773438c0 15.410156-12.539063 27.949218-27.953125 27.949218-15.410157 0-27.949219-12.539062-27.949219-27.949218v-14.773438zm-226.964844 131.050781c0-21.273437 17.308594-38.582031 38.582031-38.582031h231.125c4.144531 0 7.5-3.359375 7.5-7.5 0-4.144531-3.355469-7.5-7.5-7.5h-207.210937l11.660156-39.289062c6.667969-22.480469 27.707031-38.179688 51.15625-38.179688h30.75v14.773438c0 23.679687 19.265625 42.949218 42.949219 42.949218 23.683593 0 42.953125-19.265625 42.953125-42.949218v-14.773438h30.746094c23.449218 0 44.484374 15.699219 51.15625 38.179688l11.660156 39.289062h-33.5c-4.144532 0-7.5 3.359375-7.5 7.5s3.355468 7.5 7.5 7.5h57.414062c21.273438 0 38.582032 17.308594 38.582032 38.582031 0 21.273438-17.308594 38.582031-38.582032 38.582031h-320.859375c-21.273437 0-38.582031-17.308593-38.582031-38.582031zm352.800781 158.472657-9.546875 66.339843c-2.921875 20.28125-20.574218 35.574219-41.0625 35.574219h-195.195312c-4.140625 0-7.5 3.359375-7.5 7.5s3.359375 7.5 7.5 7.5h195.195312c3.875 0 7.671875-.417969 11.359375-1.183594l-5.402343 38.066406c-3.128907 22.050782-22.285157 38.679688-44.554688 38.679688h-129.164062c-22.269532 0-41.425782-16.628906-44.554688-38.679688l-6.738281-47.492187c.527343-3.269531-1.15625-6.609375-4.320313-8.035156-13.019531-5.863281-22.011718-17.800781-24.042968-31.929688l-9.550782-66.339843c-.847656-5.882813.898438-11.828126 4.789063-16.320313 3.890625-4.488281 9.523437-7.0625 15.464843-7.0625h267.066407c5.941406 0 11.578125 2.574219 15.46875 7.066406 3.890625 4.488281 5.636719 10.433594 4.789062 16.316407zm-290.179687-38.253907-9.453125-66.636719h291.691406l-9.457031 66.636719c-.949219-.078125-271.832032-.078125-272.78125 0zm0 0"/><path d="m234.441406 314.414062h-40.859375c-8.363281 0-15.171875 6.804688-15.171875 15.171876v20.429687c0 19.628906 15.972656 35.597656 35.601563 35.597656 19.628906 0 35.601562-15.96875 35.601562-35.597656v-20.429687c0-8.367188-6.804687-15.171876-15.171875-15.171876zm.171875 35.601563c0 11.359375-9.242187 20.601563-20.601562 20.601563s-20.601563-9.242188-20.601563-20.601563v-20.429687c0-.09375 41.203125-.09375 41.203125 0zm0 0"/></svg>