<svg height="511pt" viewBox="-88 0 511 511.99894" width="511pt" xmlns="http://www.w3.org/2000/svg"><path d="m53.859375 447.105469c5.996094 28.78125 29.238281 50.757812 58.285156 55.265625 18.523438 2.875 92.414063 2.875 110.9375 0 29.050781-4.507813 52.292969-26.484375 58.289063-55.265625zm0 0" fill="#a5b1bd"/><path d="m53.859375 447.105469c5.996094 28.78125 29.238281 50.757812 58.285156 55.265625 9.621094 1.492187 34.167969 2.210937 58.144531 2.152344 36.21875-14.332032 52.230469-44.148438 52.230469-44.148438v-13.269531zm0 0" fill="#8697a6"/><path d="m275.855469 104.453125h-216.480469l-34.121094 45.722656c-11.203125 15.011719-17.253906 33.242188-17.253906 51.976563v191.269531c0 26.628906 18.0625 49.832031 43.863281 56.417969 26.527344 6.773437 65.101563 13.234375 115.75 13.234375 50.648438 0 89.222657-6.457031 115.75-13.234375 25.800781-6.585938 43.863281-29.789063 43.863281-56.417969v-191.269531c0-18.730469-6.050781-36.964844-17.253906-51.976563zm0 0" fill="#fb695b"/><path d="m137.460938 409.691406s-.078126-58.734375-.105469-111.109375c-.023438-41.617187 17.875-81.246093 49.15625-108.6875 33.902343-29.738281 43.734375-65.859375 43.734375-65.859375v-19.582031h-170.871094l-34.121094 45.722656c-11.203125 15.011719-17.253906 33.246094-17.253906 51.976563v191.269531c0 26.628906 18.0625 49.832031 43.863281 56.421875 26.527344 6.773438 65.101563 13.230469 115.75 13.230469 0 0-30.152343-12.171875-30.152343-53.382813zm0 0" fill="#f54432"/><path d="m261.125 63.964844c-13.644531 13.644531-49.566406 27.449218-63.210938 13.804687-13.644531-13.644531.164063-49.570312 13.804688-63.214843 13.644531-13.644532 27.769531-5.652344 41.414062 7.992187 13.640626 13.644531 21.632813 27.773437 7.992188 41.417969zm0 0" fill="#6b7d8e"/><path d="m280.320312 124.035156h-225.414062c-15.800781 0-28.609375-12.808594-28.609375-28.609375v-.003906c0-15.800781 12.808594-28.609375 28.613281-28.609375h225.410156c15.804688 0 28.613282 12.808594 28.613282 28.609375v.003906c0 15.800781-12.8125 28.609375-28.613282 28.609375zm0 0" fill="#a5b1bd"/><path d="m103.59375 95.425781c0-15.804687 12.808594-28.613281 28.609375-28.613281h-77.296875c-15.800781 0-28.609375 12.808594-28.609375 28.613281 0 15.800781 12.808594 28.609375 28.609375 28.609375h77.296875c-15.800781 0-28.609375-12.808594-28.609375-28.609375zm0 0" fill="#8697a6"/><path d="m258.78125 283.765625c0-50.355469-40.816406-91.171875-91.167969-91.171875-50.347656 0-91.164062 40.816406-91.164062 91.171875 0 50.351563 40.816406 91.171875 91.164062 91.171875 50.351563 0 91.167969-40.820312 91.167969-91.171875zm0 0" fill="#76e7e7"/><path d="m167.613281 192.589844c-50.347656 0-91.164062 40.820312-91.164062 91.171875 0 39.765625 25.460937 73.589843 60.964843 86.050781-.023437-20.652344-.046874-46.648438-.058593-71.234375-.023438-39.695313 16.261719-77.585937 44.917969-104.816406-4.777344-.769531-9.664063-1.171875-14.660157-1.171875zm0 0" fill="#2eddda"/><path d="m222.519531 288.605469v-12.453125c0-4.140625-3.355469-7.5-7.5-7.5-4.140625 0-7.5 3.355468-7.5 7.5v12.453125c0 4.140625 3.359375 7.5 7.5 7.5 4.144531 0 7.5-3.359375 7.5-7.5zm0 0"/><path d="m127.707031 288.605469v-12.453125c0-4.140625-3.355469-7.5-7.5-7.5-4.140625 0-7.5 3.355468-7.5 7.5v12.453125c0 4.140625 3.359375 7.5 7.5 7.5 4.144531 0 7.5-3.359375 7.5-7.5zm0 0"/><path d="m167.613281 298.875c7.140625 0 13.742188-3.5625 17.660157-9.527344 2.273437-3.464844 1.3125-8.113281-2.148438-10.390625-1.269531-.832031-6.882812-2.992187-10.386719 2.152344-1.683593 2.46875-4.128906 2.765625-5.125 2.765625-.992187 0-3.484375-.269531-5.121093-2.765625-2.277344-3.460937-6.925782-4.425781-10.386719-2.152344-3.460938 2.277344-4.425781 6.925781-2.152344 10.390625 3.921875 5.964844 10.523437 9.527344 17.660156 9.527344zm0 0"/><path d="m315.984375 145.691406-15.261719-20.453125c9.667969-6.609375 15.710938-17.660156 15.710938-29.8125 0-39.152343-42.984375-36.113281-42.984375-36.113281 3.046875-6.898438 2.5-13.332031 1.121093-18.128906-2.152343-7.476563-7.277343-15.082032-16.136718-23.941406-8.851563-8.855469-16.460938-13.980469-23.933594-16.132813-7.066406-2.03125-17.671875-2.269531-28.082031 8.140625-10.46875 10.46875-20.824219 32.0625-21.570313 50.058594h-129.941406c-19.910156 0-36.109375 16.203125-36.109375 36.113281 0 12.355469 6.238281 23.277344 15.726563 29.792969l-15.28125 20.476562c-12.085938 16.195313-18.742188 36.25-18.742188 56.460938v191.269531c0 29.59375 19.742188 55.425781 48.175781 63.316406 9.015625 27.886719 33.03125 48.5 62.320313 53.042969 9.523437 1.480469 33.070312 2.21875 56.617187 2.21875s47.09375-.738281 56.617188-2.21875c18.355469-2.847656 35.132812-12.152344 47.242187-26.203125 2.707032-3.140625 2.355469-7.875-.78125-10.582031-3.140625-2.703125-7.875-2.351563-10.578125.785156-9.785156 11.355469-23.34375 18.875-38.179687 21.175781-17.769532 2.757813-90.871094 2.757813-108.640625 0-20.464844-3.175781-37.738281-16.054687-46.75-34.039062 30.761719 6.402343 64.664062 9.65625 101.070312 9.65625 43.046875 0 82.613281-4.53125 117.605469-13.464844 29.148438-7.445313 49.507812-33.632813 49.507812-63.6875v-191.269531c0-20.210938-6.65625-40.261719-18.742187-56.460938zm-98.960937-125.832031c5.519531-5.519531 12.90625-9.910156 30.804687 7.992187 17.898437 17.902344 13.511719 25.289063 7.992187 30.808594l.648438.648438h-56.621094c.730469-13.726563 9.0625-31.339844 17.175782-39.449219zm102.703124 373.5625c0 23.195313-15.714843 43.40625-38.21875 49.152344-33.777343 8.625-72.097656 13-113.894531 13s-80.117187-4.375-113.894531-13c-22.503906-5.746094-38.21875-25.960938-38.21875-49.152344v-191.269531c0-17 5.597656-33.867188 15.761719-47.488282l17.636719-23.636718c4.996093 2.964844 207.304687.511718 207.304687.511718 4.144531 0 7.5-3.359374 7.5-7.503906 0-4.140625-3.355469-7.5-7.5-7.5h-201.296875c-11.640625 0-21.109375-9.46875-21.109375-21.109375 0-11.644531 9.46875-21.113281 21.109375-21.113281h225.417969c11.640625 0 21.109375 9.46875 21.109375 21.113281 0 9.105469-5.800782 17.15625-14.433594 20.03125-3.929688 1.3125-8.253906 5.632813-3.621094 11.621094l20.582032 27.582031c10.167968 13.625 15.765624 30.492188 15.765624 47.492188zm0 0"/><path d="m167.613281 185.089844c-54.402343 0-98.664062 44.265625-98.664062 98.675781 0 9.21875 1.273437 18.347656 3.78125 27.136719 1.136719 3.980468 5.289062 6.289062 9.269531 5.152344 3.984375-1.136719 6.289062-5.289063 5.152344-9.273438-2.125-7.445312-3.203125-15.191406-3.203125-23.015625 0-46.140625 37.53125-83.671875 83.664062-83.671875 46.132813 0 83.664063 37.53125 83.664063 83.671875 0 46.136719-37.53125 83.667969-83.664063 83.667969-27.515625 0-53.28125-13.542969-68.925781-36.230469-2.351562-3.410156-7.023438-4.269531-10.433594-1.917969-3.410156 2.351563-4.265625 7.023438-1.917968 10.433594 18.445312 26.746094 48.828124 42.714844 81.277343 42.714844 54.402344 0 98.664063-44.261719 98.664063-98.671875 0-54.410157-44.261719-98.671875-98.664063-98.671875zm0 0"/></svg>