<svg height="512pt" viewBox="0 -91 512.002 512" width="512pt" xmlns="http://www.w3.org/2000/svg"><path d="m50.160156 110.613281 16.179688 175.167969h132.914062l16.179688-175.167969zm0 0" fill="#f9ee80"/><path d="m50.160156 110.613281 16.179688 175.167969h51.910156c-3.304688-28.304688-6.800781-58.285156-9.53125-81.746094-2.578125-22.128906 10.707031-43.023437 31.828125-50.101562 25.378906-8.5 45.0625-21.410156 45.0625-21.410156v-21.910157zm0 0" fill="#eedb00"/><path d="m166.144531 7.503906h-66.695312c-17.390625 0-32.558594 11.808594-36.828125 28.667969l-12.460938 49.210937h165.273438l-12.460938-49.214843c-4.269531-16.855469-19.4375-28.664063-36.828125-28.664063zm0 0" fill="#f9ee80"/><path d="m208.441406 132.523438h-151.289062c-17.671875 0-32-14.328126-32-32 0-17.671876 14.328125-32 32-32h151.289062c17.671875 0 32 14.328124 32 32-.003906 17.675781-14.328125 32-32 32zm0 0" fill="#73da8c"/><path d="m84.738281 100.523438c0-17.671876 14.328125-32 32-32h-59.585937c-17.671875 0-32 14.328124-32 32 0 17.671874 14.328125 32 32 32h59.585937c-17.671875 0-32-14.328126-32-32zm0 0" fill="#29ce69"/><path d="m296.566406 110.613281 16.179688 175.167969h132.914062l16.179688-175.167969zm0 0" fill="#f9ee80"/><path d="m296.566406 110.613281 16.179688 175.167969h51.910156c-3.304688-28.304688-6.800781-58.285156-9.535156-81.746094-2.574219-22.128906 10.707031-43.023437 31.832031-50.101562 25.378906-8.5 45.0625-21.410156 45.0625-21.410156v-21.910157zm0 0" fill="#eedb00"/><path d="m412.550781 7.503906h-66.695312c-17.390625 0-32.558594 11.808594-36.828125 28.667969l-12.460938 49.210937h165.273438l-12.460938-49.214843c-4.269531-16.855469-19.4375-28.664063-36.828125-28.664063zm0 0" fill="#f9ee80"/><path d="m454.847656 132.523438h-151.289062c-17.671875 0-32-14.328126-32-32 0-17.671876 14.328125-32 32-32h151.285156c17.675781 0 32 14.328124 32 32 .003906 17.675781-14.324219 32-31.996094 32zm0 0" fill="#73da8c"/><path d="m331.144531 100.523438c0-17.671876 14.328125-32 32-32h-59.585937c-17.671875 0-32 14.328124-32 32 0 17.671874 14.328125 32 32 32h59.585937c-17.671875 0-32-14.328126-32-32zm0 0" fill="#29ce69"/><path d="m42.339844 235.511719 4.746094 52.988281c1.742187 19.433594 18.027343 34.324219 37.539062 34.324219h96.34375c19.511719 0 35.796875-14.890625 37.539062-34.324219l4.746094-52.988281zm0 0" fill="#e7896e"/><path d="m42.339844 235.511719 4.746094 52.988281c1.742187 19.433594 18.027343 34.324219 37.539062 34.324219h23.171875c-.808594-18.558594 13.558594-35.363281 33.273437-36.613281 44.1875-2.800782 79.125-16.574219 79.125-16.574219l3.058594-34.125zm0 0" fill="#dd6642"/><path d="m288.746094 235.511719 4.746094 52.988281c1.742187 19.433594 18.027343 34.324219 37.539062 34.324219h96.34375c19.511719 0 35.796875-14.890625 37.535156-34.324219l4.746094-52.988281zm0 0" fill="#e7896e"/><path d="m288.746094 235.511719 4.746094 52.988281c1.742187 19.433594 18.027343 34.324219 37.539062 34.324219h23.167969c-.804688-18.558594 13.5625-35.363281 33.277343-36.613281 44.1875-2.800782 79.125-16.574219 79.125-16.574219l3.058594-34.125zm0 0" fill="#dd6642"/><path d="m477.179688 252.835938h-442.359376c-15.089843 0-27.320312-12.230469-27.320312-27.320313 0-15.085937 12.230469-27.316406 27.320312-27.316406h442.359376c15.089843 0 27.320312 12.230469 27.320312 27.316406 0 15.089844-12.230469 27.320313-27.320312 27.320313zm0 0" fill="#f2ad9a"/><path d="m78.375 225.515625c0-15.085937 12.230469-27.316406 27.316406-27.316406h-70.871094c-15.089843 0-27.320312 12.230469-27.320312 27.316406 0 15.089844 12.230469 27.320313 27.320312 27.320313h70.871094c-15.085937 0-27.316406-12.230469-27.316406-27.320313zm0 0" fill="#e7896e"/><path d="m132.796875 46.441406c12.441406 0 22.527344-10.085937 22.527344-22.527344v-16.410156h-45.054688v16.410156c0 12.441407 10.085938 22.527344 22.527344 22.527344zm0 0" fill="#eedb00"/><path d="m379.203125 46.441406c12.441406 0 22.527344-10.085937 22.527344-22.527344v-16.410156h-45.054688v16.410156c0 12.441407 10.085938 22.527344 22.527344 22.527344zm0 0" fill="#eedb00"/><path d="m477.179688 190.699219h-15.207032l4.851563-52.539063c15.941406-5.085937 27.523437-20.03125 27.523437-37.636718 0-18.75-13.136718-34.476563-30.683594-38.496094l-7.015624-27.699219c-5.117188-20.210937-23.25-34.328125-44.097657-34.328125h-66.695312c-20.847657 0-38.980469 14.117188-44.097657 34.328125l-7.015624 27.699219c-17.546876 4.019531-30.679688 19.746094-30.679688 38.496094 0 17.605468 11.578125 32.550781 27.519531 37.636718l4.851563 52.539063h-80.867188l4.855469-52.539063c15.9375-5.085937 27.519531-20.03125 27.519531-37.636718 0-18.746094-13.136718-34.476563-30.683594-38.496094l-7.015624-27.699219c-5.113282-20.210937-23.25-34.32421875-44.097657-34.32421875h-66.695312c-20.847657 0-38.980469 14.11328175-44.097657 34.32421875l-7.015624 27.699219c-17.546876 4.019531-30.683594 19.75-30.683594 38.496094 0 17.605468 11.582031 32.554687 27.523437 37.640624l4.851563 52.535157h-15.207032c-19.199218 0-34.820312 15.617187-34.820312 34.816406s15.621094 34.820313 34.820312 34.820313h178.679688l-2.464844 27.492187c-1.402344 15.675781-14.328125 27.496094-30.066406 27.496094h-96.34375c-15.738281 0-28.664062-11.820313-30.066406-27.492188 0 0 .023437-10.363281-8.382813-9.546875-7.605469.738282-6.558593 10.882813-6.558593 10.882813 2.101562 23.464843 21.449218 41.15625 45.007812 41.15625h96.34375c23.558594 0 42.90625-17.691407 45.007812-41.15625l2.582032-28.832031h54.882812l2.582032 28.832031c2.105468 23.464843 21.453124 41.15625 45.007812 41.15625h96.347656c23.554688 0 42.902344-17.691407 45.007813-41.15625l2.582031-28.832031s37.035156 3.207031 37.035156-34.816407c-.003906-19.203125-15.625-34.820312-34.824218-34.820312zm-82.949219-175.695313v8.910156c0 8.289063-6.742188 15.027344-15.027344 15.027344-8.289063 0-15.027344-6.738281-15.027344-15.027344v-8.910156zm-77.933594 23.007813c8.402344-26.347657 32.878906-23.007813 32.878906-23.007813v8.910156c0 16.558594 13.46875 30.027344 30.027344 30.027344s30.027344-13.46875 30.027344-30.027344v-8.910156s25-1.070312 32.878906 23.007813l5.824219 23.011719h-137.460938zm-37.238281 62.511719c0-13.507813 10.992187-24.5 24.5-24.5h151.285156c13.511719 0 24.5 10.992187 24.5 24.5 0 13.507812-10.988281 24.5-24.5 24.5h-151.285156c-13.507813 0-24.5-10.988282-24.5-24.5zm-131.234375-85.519532v8.910156c0 8.289063-6.738281 15.027344-15.027344 15.027344-8.285156 0-15.027344-6.738281-15.027344-15.027344v-8.910156zm-115.171875 85.519532c0-13.507813 10.992187-24.5 24.5-24.5h105.027344c4.144531 0 7.5-3.359376 7.5-7.5 0-4.140626-3.355469-7.5-7.5-7.5h-98.113282l5.824219-23.011719c6.835937-25.203125 32.878906-23.007813 32.878906-23.007813v8.910156c0 16.558594 13.46875 30.027344 30.027344 30.027344 16.554687 0 30.027344-13.46875 30.027344-30.027344v-8.910156s24.589843-2.925781 32.875 23.007813l5.828125 23.011719h-8.285156c-4.140626 0-7.5 3.359374-7.5 7.5 0 4.144531 3.359374 7.5 7.5 7.5h15.195312c13.511719 0 24.5 10.992187 24.5 24.5 0 13.511718-10.988281 24.5-24.5 24.5h-151.285156c-13.507813 0-24.5-10.988282-24.5-24.5zm27.757812 39.5h144.773438l-4.679688 50.675781h-135.414062zm397.03125 147.804687c-1.402344 15.675781-14.328125 27.496094-30.066406 27.496094h-96.34375c-15.738281 0-28.664062-11.820313-30.066406-27.492188l-2.464844-27.496093h161.40625zm19.738282-42.492187h-442.359376c-10.929687 0-19.820312-8.890626-19.820312-19.820313 0-10.925781 8.890625-19.816406 19.820312-19.816406h368.804688c4.140625 0 7.5-3.359375 7.5-7.5 0-4.144531-3.359375-7.5-7.5-7.5h-92.128906l-4.679688-50.675781h144.773438l-4.679688 50.675781h-11.195312c-4.140625 0-7.5 3.355469-7.5 7.5 0 4.140625 3.359375 7.5 7.5 7.5h41.464844c10.929687 0 19.820312 8.890625 19.820312 19.816406 0 10.929687-8.890625 19.820313-19.820312 19.820313zm0 0"/></svg>