<svg id="Capa_1" enable-background="new 0 0 512 512" height="512" viewBox="0 0 512 512" width="512" xmlns="http://www.w3.org/2000/svg"><g><g><circle cx="256" cy="126.542" fill="#ffb25a" r="119.043"/><ellipse cx="256" cy="126.542" fill="#ff9c20" rx="77.77" ry="77.77" transform="matrix(.383 -.924 .924 .383 41.123 314.63)"/><ellipse cx="256" cy="126.542" fill="#ffb25a" rx="36.497" ry="36.497" transform="matrix(.924 -.383 .383 .924 -28.939 107.6)"/><circle cx="351.421" cy="220.685" fill="#ffbe73" r="119.043"/><ellipse cx="351.421" cy="220.685" fill="#ffca8a" rx="77.77" ry="77.77" transform="matrix(.924 -.383 .383 .924 -57.702 151.282)"/><ellipse cx="351.421" cy="220.685" fill="#ffbe73" rx="36.497" ry="36.497" transform="matrix(.383 -.924 .924 .383 13.051 460.903)"/><path d="m130.387 413.055v37.357c0 29.872 24.216 54.088 54.088 54.088h143.05c29.872 0 54.088-24.216 54.088-54.088v-37.357l-125.613-28.71z" fill="#ff6f7f"/><circle cx="160.579" cy="220.685" fill="#ffca8a" r="119.043"/><ellipse cx="160.579" cy="220.685" fill="#ffbe73" rx="77.77" ry="77.77" transform="matrix(.383 -.924 .924 .383 -104.758 284.588)"/><ellipse cx="160.579" cy="220.685" fill="#ffca8a" rx="36.497" ry="36.497" transform="matrix(.924 -.383 .383 .924 -72.229 78.25)"/><path d="m497.425 272.453c-2.435 8.327-5.788 17.758-10.401 27.89l-231.024 24.456-231.024-24.456c-4.612-10.132-7.966-19.563-10.401-27.89-5.252-17.954 8.255-35.907 26.961-35.907h428.927c18.707 0 32.214 17.953 26.962 35.907z" fill="#ff6f7f"/><path d="m112.52 270.2c0-11.406.586-22.638 1.712-33.654h-72.695c-18.707 0-32.213 17.954-26.961 35.907 2.435 8.327 5.789 17.757 10.401 27.89l89.922 9.519c-1.565-12.931-2.379-26.176-2.379-39.662z" fill="#fc5c70"/><path d="m144.642 409.796-14.255 3.258v37.357c0 29.872 24.216 54.088 54.088 54.088h44.931c-34.774-20.885-64.159-53.874-84.764-94.703z" fill="#fc5c70"/><path d="m487.024 300.343c-15.787 34.638-46.329 77.469-105.411 112.716h-251.227c-59.082-35.247-89.624-78.078-105.411-112.716z" fill="#6a647f"/><path d="m113.903 300.343h-88.927c15.787 34.638 46.329 77.469 105.411 112.716h15.945c-17.235-33.045-28.658-71.396-32.429-112.716z" fill="#5c586f"/></g><g><path d="m184.475 512h143.05c33.96 0 61.588-27.628 61.588-61.588v-33.135c53.7-32.989 97.629-81.569 115.51-142.718 5.981-20.444-7.175-40.783-26.995-44.787 4.52-63.151-38.227-119.06-98.52-132.57-13.434-56.618-64.416-97.202-123.108-97.202-58.703 0-109.693 40.6-123.116 97.235-18.783 4.226-36.523 12.695-51.624 24.859-3.226 2.599-3.734 7.32-1.136 10.546 2.598 3.225 7.319 3.734 10.545 1.136 75.522-60.833 188.531-2.266 181.121 95.271h-26.36c4.944-50.326-34.749-93.63-84.851-93.63-50.161 0-89.789 43.361-84.85 93.63h-26.379c-1.982-26.581 5.316-53.556 22.685-76.191 2.521-3.287 1.902-7.995-1.385-10.516-3.286-2.522-7.995-1.902-10.516 1.384-19.626 25.578-27.911 55.993-25.762 86.05-19.823 4.004-32.975 24.344-26.996 44.786 17.806 60.886 61.621 109.613 115.511 142.719v33.135c0 33.958 27.629 61.586 61.588 61.586zm143.05-15h-143.05c-25.688 0-46.588-20.899-46.588-46.588v-29.852h236.226v29.853c0 25.688-20.899 46.587-46.588 46.587zm-166.946-305.312c19.428 0 33.372 18.841 27.772 37.357h-55.544c-5.596-18.504 8.335-37.357 27.772-37.357zm95.421-54.134c-7.802-8.987-16.685-16.702-26.384-23.037 10.232-22.547 42.486-22.644 52.767-.005-9.371 6.118-18.506 13.96-26.383 23.042zm39.452-30.494c-16.057-32.642-62.843-32.65-78.904 0-7.872-3.877-16.155-6.918-24.739-9.075 11.05-24.622 35.603-41.712 64.19-41.712 28.537 0 53.12 17.045 64.191 41.712-8.4 2.115-16.617 5.076-24.738 9.075zm55.969 84.628c19.428 0 33.372 18.841 27.772 37.357h-55.544c-5.597-18.505 8.335-37.357 27.772-37.357zm111.23 37.358h-26.379c1.768-17.993-2.239-35.521-10.703-50.396-2.048-3.6-6.628-4.858-10.228-2.81-3.6 2.049-4.858 6.628-2.81 10.228 7.246 12.736 10.478 27.761 8.662 42.978h-26.583c5.278-27.361-15.805-52.357-43.188-52.357-27.421 0-48.459 25.039-43.189 52.357h-21.388c.711-10.776-.018-21.618-1.807-31.394 15.994-46.08 72.404-61.879 110.014-31.983 3.242 2.577 7.961 2.038 10.538-1.204 2.578-3.243 2.039-7.961-1.204-10.538-40.328-32.057-98.968-21.094-125.458 21.837-3.463-9.114-7.988-17.843-13.559-26.041 24.704-30.02 63.395-45.285 103.136-39.272 56.29 8.687 98.55 59.522 94.146 118.595zm-313.566-134.384c13.895-46.741 57.278-79.662 106.915-79.662 49.638 0 93.021 32.921 106.916 79.662-9.293-.832-18.485-.648-27.641.496-12.612-31.625-43.344-53.885-79.275-53.885-35.865 0-66.638 22.2-79.275 53.885-9.245-1.162-18.499-1.321-27.64-.496zm11.494 55.754c41.814 0 74.79 36.606 69.772 78.63h-26.583c5.278-27.361-15.806-52.357-43.189-52.357-27.42 0-48.461 25.039-43.188 52.357h-26.583c-5.017-42.02 27.954-78.63 69.771-78.63zm-119.042 93.63h428.927c13.732 0 23.609 13.155 19.763 26.302v.001c-2.2 7.523-4.915 15.07-8.089 22.495h-452.275c-3.175-7.424-5.889-14.972-8.09-22.496-3.838-13.123 6.012-26.302 19.764-26.302zm-4.549 63.798h438.023c-20.293 38.8-52.356 71.626-95.47 97.711h-247.082c-43.114-26.085-75.178-58.911-95.471-97.711z"/><path d="m164.519 365.63c4.142 0 7.5-3.358 7.5-7.5v-17.579c0-4.142-3.358-7.5-7.5-7.5s-7.5 3.358-7.5 7.5v17.579c0 4.141 3.358 7.5 7.5 7.5z"/><path d="m347.482 365.63c4.142 0 7.5-3.358 7.5-7.5v-17.579c0-4.142-3.358-7.5-7.5-7.5s-7.5 3.358-7.5 7.5v17.579c0 4.141 3.357 7.5 7.5 7.5z"/><path d="m256 376.094c11.411 0 22.263-4.942 29.773-13.56 2.721-3.123 2.396-7.86-.727-10.582s-7.86-2.396-10.582.727c-4.661 5.348-11.391 8.415-18.464 8.415s-13.804-3.067-18.465-8.415c-2.722-3.123-7.459-3.447-10.582-.727-3.123 2.722-3.448 7.459-.726 10.582 7.511 8.617 18.363 13.56 29.773 13.56z"/></g></g></svg>