<svg height="512pt" viewBox="-47 0 512 512" width="512pt" xmlns="http://www.w3.org/2000/svg"><path d="m341.519531 504.5h-194.351562c-38.21875 0-69.199219-30.980469-69.199219-69.199219v-358.601562c0-38.21875 30.980469-69.199219 69.199219-69.199219h194.351562c38.21875 0 69.199219 30.980469 69.199219 69.199219v358.601562c0 38.21875-30.980469 69.199219-69.199219 69.199219zm0 0" fill="#6b7d8e"/><path d="m271.050781 504.5h-194.351562c-38.21875 0-69.199219-30.980469-69.199219-69.199219v-358.601562c0-38.21875 30.980469-69.199219 69.199219-69.199219h194.351562c38.214844 0 69.199219 30.980469 69.199219 69.199219v358.601562c0 38.21875-30.980469 69.199219-69.199219 69.199219zm0 0" fill="#76e7e7"/><path d="m271.050781 7.5h-58.71875c38.21875 0 69.199219 30.980469 69.199219 69.199219v358.601562c0 38.21875-30.980469 69.199219-69.199219 69.199219h58.71875c38.21875 0 69.199219-30.980469 69.199219-69.199219v-358.601562c0-38.21875-30.980469-69.199219-69.199219-69.199219zm0 0" fill="#2eddda"/><path d="m271.050781 7.5h-194.351562c-38.21875 0-69.199219 30.980469-69.199219 69.199219v37.648437h332.75v-37.648437c0-38.21875-30.980469-69.199219-69.199219-69.199219zm0 0" fill="#a5b1bd"/><path d="m340.25 76.699219c0-38.21875-30.980469-69.199219-69.199219-69.199219h-58.71875c38.21875 0 69.199219 30.980469 69.199219 69.199219v37.648437h58.71875zm0 0" fill="#8697a6"/><path d="m271.050781 504.5h-194.351562c-38.21875 0-69.199219-30.980469-69.199219-69.199219v-37.648437h332.75v37.648437c0 38.21875-30.980469 69.199219-69.199219 69.199219zm0 0" fill="#a5b1bd"/><path d="m340.25 435.300781c0 38.21875-30.980469 69.199219-69.199219 69.199219h-58.71875c38.21875 0 69.199219-30.980469 69.199219-69.199219v-37.644531h58.71875zm0 0" fill="#8697a6"/><path d="m233.816406 157.453125c-11.917968 18.464844-25.21875 47.027344-28.449218 85.488281-.53125 6.34375 2.605468 12.082032 7.574218 15.222656l-.023437.003907s9.75 4.230469 9.78125 23.976562c0 .050781.085937.09375.085937.09375h31.511719v-118.726562c0-11.089844-14.464844-15.378907-20.480469-6.058594zm0 0" fill="#fffcdc"/><path d="m131.867188 359.652344c-16.117188 0-29.183594-13.066406-29.183594-29.183594v-40.65625c0-9.386719 7.613281-17 17.003906-17h24.363281c9.390625 0 17.003907 7.613281 17.003907 17v40.65625c0 16.117188-13.066407 29.183594-29.1875 29.183594zm0 0" fill="#e7896e"/><path d="m227.128906 359.652344c15.003906 0 27.167969-12.164063 27.167969-27.167969v-59.671875h-33.859375c-11.304688 0-20.472656 9.167969-20.472656 20.472656v39.199219c0 15.003906 12.160156 27.167969 27.164062 27.167969zm0 0" fill="#e7896e"/><g fill="#8697a6"><path d="m136.257812 60.921875c0 11.65625-9.449218 21.105469-21.101562 21.105469-11.65625 0-21.105469-9.449219-21.105469-21.105469 0-11.652344 9.449219-21.101563 21.105469-21.101563 11.652344 0 21.101562 9.449219 21.101562 21.101563zm0 0"/><path d="m232.59375 82.023438h-47.679688c-11.652343 0-21.101562-9.445313-21.101562-21.101563s9.449219-21.101563 21.101562-21.101563h47.679688c11.65625 0 21.101562 9.449219 21.101562 21.101563 0 11.65625-9.449218 21.101563-21.101562 21.101563zm0 0"/><path d="m203.78125 451.078125c0 16.515625-13.390625 29.90625-29.90625 29.90625-16.519531 0-29.910156-13.390625-29.910156-29.90625 0-16.519531 13.390625-29.910156 29.910156-29.910156 16.515625 0 29.90625 13.390625 29.90625 29.910156zm0 0"/></g><path d="m115.15625 32.320312c-15.773438 0-28.601562 12.832032-28.601562 28.601563 0 15.773437 12.828124 28.601563 28.601562 28.601563 15.769531 0 28.601562-12.828126 28.601562-28.601563 0-15.769531-12.832031-28.601563-28.601562-28.601563zm0 42.203126c-7.5 0-13.601562-6.101563-13.601562-13.601563s6.101562-13.601563 13.601562-13.601563 13.601562 6.101563 13.601562 13.601563-6.101562 13.601563-13.601562 13.601563zm0 0"/><path d="m184.914062 89.523438h47.679688c15.769531 0 28.601562-12.828126 28.601562-28.601563 0-15.769531-12.828124-28.601563-28.601562-28.601563h-47.679688c-15.769531 0-28.601562 12.832032-28.601562 28.601563 0 15.773437 12.832031 28.601563 28.601562 28.601563zm0-42.203126h47.679688c7.5 0 13.601562 6.101563 13.601562 13.601563s-6.101562 13.601563-13.601562 13.601563h-47.679688c-7.5 0-13.601562-6.101563-13.601562-13.601563s6.101562-13.601563 13.601562-13.601563zm0 0"/><path d="m173.875 413.671875c-20.628906 0-37.40625 16.777344-37.40625 37.40625 0 20.625 16.777344 37.40625 37.40625 37.40625 20.625 0 37.40625-16.78125 37.40625-37.40625 0-20.628906-16.78125-37.40625-37.40625-37.40625zm0 59.8125c-12.355469 0-22.40625-10.050781-22.40625-22.40625s10.050781-22.40625 22.40625-22.40625 22.40625 10.050781 22.40625 22.40625-10.050781 22.40625-22.40625 22.40625zm0 0"/><path d="m410.71875 353.332031c4.140625 0 7.5-3.359375 7.5-7.5v-269.132812c0-42.292969-34.40625-76.699219-76.699219-76.699219h-264.820312c-42.292969 0-76.699219 34.40625-76.699219 76.699219v358.601562c0 42.292969 34.40625 76.699219 76.699219 76.699219h264.820312c42.292969 0 76.699219-34.40625 76.699219-76.699219v-56.449219c0-4.144531-3.359375-7.5-7.5-7.5-4.144531 0-7.5 3.355469-7.5 7.5v56.449219c0 34.019531-27.679688 61.699219-61.699219 61.699219h-24.96875c18.910157-13.980469 31.199219-36.429688 31.199219-61.699219v-358.601562c0-25.269531-12.289062-47.71875-31.199219-61.699219h24.96875c34.019531 0 61.699219 27.679688 61.699219 61.699219v269.132812c0 4.144531 3.355469 7.5 7.5 7.5zm-139.667969 143.667969h-194.351562c-34.019531 0-61.699219-27.679688-61.699219-61.699219v-30.148437h317.75v30.148437c0 34.019531-27.679688 61.699219-61.699219 61.699219zm61.699219-420.300781v30.148437h-261.941406c-4.144532 0-7.5 3.355469-7.5 7.5 0 4.140625 3.355468 7.5 7.5 7.5h261.941406v268.308594h-317.75v-268.308594h23.480469c4.144531 0 7.5-3.359375 7.5-7.5 0-4.144531-3.355469-7.5-7.5-7.5h-23.480469v-30.148437c0-34.019531 27.679688-61.699219 61.699219-61.699219h194.351562c34.019531 0 61.699219 27.679688 61.699219 61.699219zm0 0"/><path d="m227.128906 367.152344c19.117188 0 34.667969-15.550782 34.667969-34.667969v-168.96875c0-8.339844-5.378906-15.527344-13.382813-17.886719-7.980468-2.351562-16.386718.761719-20.898437 7.757813-11.617187 18-26.1875 48.039062-29.621094 88.929687-.667969 7.960938 2.636719 15.597656 8.742188 20.539063.777343.953125 4.074219 2.882812 4.839843 3.9375-11.042968 3.746093-19.011718 14.203125-19.011718 26.496093v39.195313c0 19.117187 15.550781 34.667969 34.664062 34.667969zm-14.289062-123.582032c3.175781-37.804687 16.585937-65.488281 27.277344-82.050781 1.273437-1.972656 3.089843-1.789062 4.058593-1.5.789063.230469 2.621094 1.035157 2.621094 3.496094v101.796875h-19.332031c-3.1875-8.5-8.3125-12.234375-10.550782-13.507812-2.792968-1.78125-4.351562-4.933594-4.074218-8.234376zm-5.375 49.714844c0-7.152344 5.820312-12.972656 12.976562-12.972656h26.355469v52.171875c0 10.84375-8.824219 19.667969-19.667969 19.667969s-19.664062-8.824219-19.664062-19.667969zm0 0"/><path d="m124.367188 239.636719v25.675781s-29.179688-3.664062-29.179688 24.5v40.65625c0 20.226562 16.453125 36.683594 36.683594 36.683594 20.226562 0 36.683594-16.457032 36.683594-36.683594v-40.65625c0-26.242188-29.183594-24.5-29.183594-24.5v-25.675781c17.601562-3.5 30.914062-19.058594 30.914062-37.675781v-41.195313c0-4.144531-3.355468-7.5-7.5-7.5-4.140625 0-7.5 3.355469-7.5 7.5v41.195313c0 10.289062-6.671875 19.042968-15.914062 22.175781v-63.375c0-4.140625-3.359375-7.5-7.5-7.5-4.144532 0-7.5 3.359375-7.5 7.5v63.375c-9.242188-3.132813-15.917969-11.886719-15.917969-22.175781v-41.195313c0-4.144531-3.355469-7.5-7.5-7.5-4.140625 0-7.5 3.355469-7.5 7.5v41.195313c0 18.617187 13.3125 34.175781 30.914063 37.675781zm29.1875 50.179687v40.652344c0 11.957031-9.730469 21.683594-21.6875 21.683594-11.953126 0-21.683594-9.726563-21.683594-21.683594v-40.652344c0-5.242187 4.265625-9.503906 9.503906-9.503906h24.363281c5.238281 0 9.503907 4.261719 9.503907 9.503906zm0 0"/></svg>