<svg id="Capa_1" enable-background="new 0 0 512 512" height="512" viewBox="0 0 512 512" width="512" xmlns="http://www.w3.org/2000/svg"><g><g><path d="m406.657 130.221-24.128-24.128-126.529-49.297-126.529 49.296-24.128 24.128c-17.079 17.079-26.674 40.244-26.674 64.397v158.933c0 34.574 13.735 67.733 38.182 92.18l139.149 29.386 139.149-29.384c24.448-24.448 38.182-57.606 38.182-92.18v-158.934c0-24.154-9.595-47.318-26.674-64.397z" fill="#9ae0eb"/><path d="m193.962 475.116c0-258.283 134.675-239.98 134.675-369.023l25.966-49.296 27.926 49.296c0 148.932-110.621 147.377-47.814 369.023z" fill="#fff"/><path d="m125.332 216.55c0-40.126 5.039-78.628 14.267-114.404l-10.128 3.946-24.128 24.128c-17.079 17.079-26.674 40.244-26.674 64.397v158.933c0 34.574 13.735 67.733 38.182 92.18l85.263 18.005c-47.314-62.281-76.782-149.998-76.782-247.185z" fill="#64d1e1"/><path d="m382.529 7.5h-253.058c-22.473 0-40.691 18.218-40.691 40.691v17.21c0 22.473 18.218 40.691 40.691 40.691h253.057c22.473 0 40.691-18.218 40.691-40.691v-17.21c.001-22.473-18.217-40.691-40.69-40.691z" fill="#c7c5cb"/><path d="m395.149 445.731h-278.298c-16.229 0-29.384 13.156-29.384 29.384 0 16.229 13.156 29.384 29.384 29.384h278.297c16.229 0 29.384-13.156 29.384-29.384.001-16.228-13.155-29.384-29.383-29.384z" fill="#c7c5cb"/><g fill="#b2b0bc"><path d="m189.403 445.731h-72.551c-16.229 0-29.384 13.156-29.384 29.384 0 16.229 13.156 29.384 29.384 29.384h122.855c-18.618-16.468-35.531-36.263-50.304-58.768z"/><path d="m138.589 106.093c8.907-35.931 22.046-69.162 38.589-98.593h-47.706c-22.473 0-40.691 18.218-40.691 40.691v17.21c0 22.473 18.218 40.691 40.691 40.691h9.117z"/></g></g><g><path d="m176.407 66.286c4.142 0 7.5-3.357 7.5-7.5v-15.294c0-4.142-3.358-7.5-7.5-7.5s-7.5 3.358-7.5 7.5v15.294c0 4.142 3.358 7.5 7.5 7.5z"/><path d="m335.592 66.286c4.142 0 7.5-3.357 7.5-7.5v-15.294c0-4.142-3.358-7.5-7.5-7.5s-7.5 3.358-7.5 7.5v15.294c0 4.142 3.358 7.5 7.5 7.5z"/><path d="m282.639 63.258c2.721-3.123 2.396-7.86-.727-10.582-3.123-2.721-7.86-2.396-10.582.727-8.104 9.298-22.533 9.326-30.66 0-2.721-3.123-7.459-3.448-10.582-.727-3.123 2.722-3.448 7.459-.727 10.582 14.098 16.176 39.194 16.16 53.278 0z"/><path d="m433.331 283.138c4.142 0 7.5-3.358 7.5-7.5v-81.02c0-26.33-10.253-51.083-28.871-69.701l-13.906-13.906c18.976-6.478 32.665-24.469 32.665-45.61v-17.21c.001-26.572-21.617-48.191-48.19-48.191h-253.058c-26.573 0-48.191 21.619-48.191 48.191v17.21c0 21.141 13.69 39.133 32.666 45.61l-13.906 13.906c-18.618 18.618-28.871 43.371-28.871 69.701v28.593c0 4.142 3.358 7.5 7.5 7.5s7.5-3.358 7.5-7.5v-28.593c0-22.323 8.693-43.31 24.478-59.094l21.932-21.931h188.383c-4.836 110.12-121.568 107.229-133.518 324.638h-67.432c-21.847-22.938-33.842-52.888-33.842-84.68v-100.34c0-4.142-3.358-7.5-7.5-7.5s-7.5 3.358-7.5 7.5v100.34c0 32.328 11.055 62.955 31.372 87.571-13.251 5.599-22.574 18.728-22.574 33.994 0 20.338 16.546 36.885 36.885 36.885h278.297c20.338 0 36.884-16.546 36.884-36.885 0-15.266-9.323-28.395-22.573-33.994 20.316-24.615 31.371-55.243 31.371-87.571v-47.913c0-4.142-3.358-7.5-7.5-7.5s-7.5 3.358-7.5 7.5v47.913c0 31.792-11.995 61.742-33.841 84.68h-58.932c-39.421-176.135 48.721-187.615 56.44-314.564l11.856 11.856c15.784 15.784 24.477 36.771 24.477 59.094v81.02c-.001 4.143 3.357 7.501 7.499 7.501zm-337.051-217.737v-17.21c0-18.302 14.889-33.191 33.191-33.191h253.058c18.302 0 33.191 14.889 33.191 33.191v17.21c0 18.302-14.889 33.191-33.191 33.191h-253.058c-18.302 0-33.191-14.889-33.191-33.191zm320.753 409.714c0 12.067-9.817 21.885-21.884 21.885h-278.297c-12.067 0-21.885-9.817-21.885-21.885s9.817-21.884 21.885-21.884h278.297c12.067 0 21.884 9.817 21.884 21.884zm-99.337-36.884h-115.235c11.94-213.175 128.771-205.483 133.53-324.638h38.943c-3.323 128.593-96.793 142.495-57.238 324.638z"/></g></g></svg>