<svg id="Layer_1" enable-background="new 0 0 128 128" height="45" viewBox="0 0 128 128" width="45" xmlns="http://www.w3.org/2000/svg">
<path d="m46.4 27.5h33.4c15.1 0 27.3 12.2 27.3 27.3v2.6h-88v-2.6c0-15.1 12.2-27.3 27.3-27.3z" fill="#ffcdbe"/>
<path d="m14.6 57.4h97c2.2 0 4 1.8 4 4 0 2.2-1.8 4-4 4h-97c-2.2 0-4-1.8-4-4 0-2.2 1.8-4 4-4z" fill="#ff8f00"/>
<path d="m16.7 69.4h92.9c3.3 0 6 2.7 6 6 0 3.3-2.7 6-6 6h-92.9c-3.3 0-6-2.7-6-6-.1-3.3 2.6-6 6-6z" fill="#ff8f00"/>
<path d="m86.4 102.2h-46.5c-11.5 0-20.7-9.3-20.7-20.7h88c-.1 11.5-9.4 20.7-20.8 20.7z" fill="#ffcdbe"/>
<path d="m111.6 65.4c4.5 8-7 16.1-14.3 10.8l-.2-.2c-6.4-4.5-14.8-5.3-22-2.1-6.9 3-12.1 3.2-22.5-.4-13.5-4.7-17.8 1.9-28 2s-11.6-5.7-10-10.1z" fill="#c2e921"/><path d="m40.2 89.5-12.1-24.1h24.1z" fill="#ffe469"/><path d="m83.5 91.6-17.1-34.2h34.2z" fill="#ffc639"/><g fill="#2f4343"><path d="m114.3 69.3c0-.9-.1-1.8-.3-2.7 2.9-1.3 4.2-4.7 2.9-7.6-.9-2.1-3-3.4-5.2-3.4h-90.8v-.9c0-14.1 11.4-25.5 25.5-25.5h33.4c12.1 0 22.5 8.5 25 20.3.2.9 1.1 1.6 2.1 1.4.9-.2 1.6-1.1 1.4-2.1-2.8-13.4-14.7-23.1-28.4-23.1h-33.5c-16 0-29 13-29 29v.9h-2.7c-3.2 0-5.8 2.6-5.8 5.8 0 2.3 1.4 4.5 3.6 5.3-.5 2.2 0 4.5 1.2 6.3 1.3 2 4.3 4.2 10.7 4.2h.3c2.3 0 4.7-.4 6.9-1l7 14.1c.4.9 1.5 1.2 2.3.8.3-.2.6-.4.8-.8l3.5-7.1h32.1l4.6 9.1c.4.9 1.5 1.2 2.3.8.3-.2.6-.4.8-.8l4.6-9.1h15.6c-.9 9.8-9.1 17.2-18.9 17.2h-26.8c-1 0-1.8.8-1.8 1.8s.8 1.8 1.8 1.8h26.9c11.7 0 21.5-9 22.4-20.7h.8c4.3 0 7.8-3.5 7.8-7.8 0-2.4-1.1-4.7-3.1-6.2zm-.4-7.9c0 1.2-1 2.3-2.3 2.3h-12.2l2.3-4.5h9.9c1.3-.1 2.3.9 2.3 2.2zm-89.3 12.3c-4 .1-6.8-.9-8-2.7-.7-1.2-1-2.6-.6-3.9h11l3 5.9c-1.8.5-3.6.7-5.4.7zm15.6 11.9-9.2-18.5h18.5zm6.8-5.8 6.3-12.6h9.5c1 0 1.8-.8 1.8-1.8s-.8-1.8-1.8-1.8h-48.2c-1.2 0-2.3-1-2.3-2.3s1-2.3 2.3-2.3h50.7l7 14c-5 1.8-9.3 1.7-16-.3-.9-.3-1.9.3-2.1 1.2s.3 1.8 1.1 2.1c3.3 1.1 6.7 1.7 10.1 1.8 2.9 0 5.8-.6 8.5-1.6l1.7 3.5zm36.5 7.9-14.3-28.6h28.6zm26.1-7.9h-18.2l6.3-12.6h12.8c1.3 3.4-1.2 6-2 6.7-2.6 2.3-6.9 3.3-10.2.9-.8-.6-1.9-.4-2.4.4s-.4 1.9.4 2.4c1.8 1.3 4 2.1 6.3 2 3 0 6-1.1 8.2-3.1 1-.9 1.8-2 2.5-3.1 1.2 2 .5 4.7-1.6 5.8-.6.4-1.3.6-2.1.6z"/><path d="m52.8 100.5h-1c-1 0-1.8.8-1.8 1.8s.8 1.8 1.8 1.8h1c1 0 1.8-.8 1.8-1.8s-.8-1.8-1.8-1.8z"/><path d="m44.2 100.5h-4.3c-9.8 0-18-7.5-18.9-17.2h7c1 0 1.8-.8 1.8-1.8s-.8-1.8-1.8-1.8h-11.3c-2.4 0-4.3-1.9-4.3-4.3 0-1-.8-1.8-1.8-1.8s-1.8.8-1.8 1.8c0 4.3 3.5 7.8 7.8 7.8h.8c1 11.8 10.7 20.8 22.5 20.8h4.3c1 0 1.8-.8 1.8-1.8s-.9-1.7-1.8-1.7z"/><path d="m46.5 34.6c0 1.4 1.2 2.6 2.6 2.6s2.6-1.2 2.6-2.6-1.1-2.6-2.5-2.6c-1.5 0-2.7 1.1-2.7 2.6z"/><path d="m67.3 49.2c0 1.4 1.2 2.6 2.6 2.6s2.6-1.2 2.6-2.6-1.2-2.6-2.6-2.6c-1.5 0-2.6 1.2-2.6 2.6z"/><path d="m90 43.9c0 1.4 1.2 2.6 2.6 2.6s2.6-1.2 2.6-2.6-1.2-2.6-2.6-2.6c-1.5-.1-2.6 1.1-2.6 2.6z"/><path d="m36.7 50.1c0 1.4 1.2 2.6 2.6 2.6s2.6-1.2 2.6-2.6-1.2-2.6-2.6-2.6c-1.5 0-2.6 1.2-2.6 2.6z"/>
<path d="m73.4 33.9c0 1.4 1.2 2.6 2.6 2.6s2.6-1.2 2.6-2.6-1.2-2.6-2.6-2.6-2.6 1.2-2.6 2.6z"/></g>
</svg>