<svg id="Layer_1" enable-background="new 0 0 128 128" height="512" viewBox="0 0 128 128" width="512" xmlns="http://www.w3.org/2000/svg"><path d="m57.2 20.2h11.8c12.6 0 22.8 10.2 22.8 22.8h-57.3c0-12.6 10.1-22.8 22.7-22.8z" fill="#dff3ff"/><path d="m78.7 117.4h-31.2c-2.8.1-5.2-1.8-5.6-4.6l-7.5-62.6h57.3l-7.5 62.6c-.3 2.7-2.7 4.7-5.5 4.6z" fill="#ffe469"/><path d="m31.1 43.1h64v7.1h-64z" fill="#64e0db"/><path d="m84.3 112.8 3.9-32.9c-7.2-6-18-8.1-28.1-4.7-8.5 2.9-16.8.2-23.1-3.2l4.9 40.8c.5 2.7 2.9 4.7 5.6 4.6h31.2c2.8.1 5.2-1.9 5.6-4.6z" fill="#ff8f00"/><path d="m76.2 33c-.6 0-1.1.1-1.7.2-5.4-6.2-14.9-6.9-21.1-1.5-.5.5-1 1-1.5 1.5-5.4-1-10.6 2.6-11.6 8-.1.6-.2 1.2-.2 1.8h46.1c0-5.5-4.5-10-10-10z" fill="#c2e921"/><g fill="#2f4343"><path d="m95.1 41.3h-7.3c-.8-5.7-5.8-10.1-11.6-10.1-.3 0-.7 0-1 .1-2.7-2.8-6.3-4.5-10.2-5v-4.3h4c8.9 0 16.9 5.7 19.9 14.1.3.9 1.2 1.5 2.2 1.2s1.5-1.2 1.2-2.2c0-.1 0-.1-.1-.2-3.5-9.8-12.7-16.4-23.2-16.4h-4.1v-4.3h8.1c1 0 1.8-.8 1.8-1.8s-.8-1.8-1.8-1.8h-9.9c-1 0-1.8.8-1.8 1.8v13.9c-3.9.4-7.5 2.2-10.2 5-.4 0-.7-.1-1-.1-5.9 0-10.8 4.3-11.6 10.1h-2.2c.8-10.9 10-19.3 20.9-19.3 1 0 1.8-.8 1.8-1.8s-.8-1.8-1.8-1.8c-12.9 0-23.6 10-24.5 22.9h-1.6c-1 0-1.8.8-1.8 1.8v7.1c0 1 .8 1.8 1.8 1.8h12.2c1 0 1.8-.8 1.8-1.8s-.8-1.8-1.8-1.8h-10.4v-3.6h60.5v3.6h-33.3c-1 0-1.8.8-1.8 1.8s.8 1.8 1.8 1.8h29.7l-2.9 24.7c-8.1-5.2-18.2-6.3-27.3-3.2-7.7 2.6-15.5.1-20.9-2.7l-1.6-13.5c-.1-1-1-1.6-1.9-1.5-1 .1-1.6 1-1.5 1.9l6.6 55.2c.6 3.6 3.7 6.2 7.4 6.1h31.2c3.6.1 6.8-2.5 7.4-6.1l7.3-61.1h1.8c1 0 1.8-.8 1.8-1.8v-7.1c-.3-.8-1.1-1.6-2.1-1.6zm-45-6.6c.5 0 .9 0 1.4.1.6.1 1.2-.1 1.6-.6 4.8-5.5 13.1-6.1 18.7-1.3.5.4.9.9 1.3 1.3.4.5 1 .7 1.6.6 4.4-.8 8.6 2.1 9.5 6.5h-42.2c.8-3.8 4.2-6.6 8.1-6.6zm32.5 77.9c-.4 1.8-2 3.1-3.9 3h-31.2c-1.9.1-3.5-1.2-3.9-3l-4.4-37.6c7.6 3.4 15 4.1 21.5 1.9 9-3.1 18.7-1.6 25.7 3.8z"/><path d="m52.6 52c1 0 1.8-.8 1.8-1.8s-.8-1.8-1.8-1.8h-1.8c-1 0-1.8.8-1.8 1.8s.8 1.8 1.8 1.8z"/></g></svg>