<svg id="Layer_1" enable-background="new 0 0 128 128" height="50" viewBox="0 0 128 128" width="50" xmlns="http://www.w3.org/2000/svg">
<path d="m73.2 42.6c20.6 0 37.2 16.7 37.2 37.2h-87.3c7.8 0 13.4-7.1 14.3-10.4 4.7-15.9 19.2-26.8 35.8-26.8z" fill="#ffb89b"/>
<path d="m71.1 49.2c-1.4.1-3.2-1.8-4.3-1.3-2.9-3.6-6.8-1.1-11.7-.7-4.3.4-7.6-7.1-10-3.9-3.8-4.2-10.3-4.6-14.5-.8-1.8 1.6-2.9 3.7-3.3 6-4.8-.9-9.5 2.3-10.4 7.1s2.3 9.5 7.1 10.4c4.5.8 8.8-1.8 10.2-6.1 3.3 1.1 7 .5 9.8-1.8 3.6 7 12.1 9.8 19.1 6.2 1.1-.5 2.1-1.2 2.9-2 2.2 1.6 4.9 2.3 7.6 2.1 6.3-.6 9.6.2 9.1-6.1s-5.3-9.6-11.6-9.1z" fill="#ff6319"/><path d="m55.7 38.4c1.2.6 2.2 1.5 3.1 2.5 6.9-3.7 15.6-1.1 19.3 5.9.6 1.1 1 2.3 1.3 3.6 5.2-2.4 11.3-.2 13.7 5 1 2.1 1.2 4.6.6 6.8 4.8 1.1 7.8 5.9 6.8 10.7-1.1 4.8-5.9 7.8-10.7 6.8-4.4-1-7.4-5.1-6.9-9.7-3.5-.3-6.7-2.4-8.3-5.5-6.1 5-15 4.2-20-1.9-.8-.9-1.4-1.9-1.9-3-6.2 1.3-12.2-2.6-13.5-8.8s2.6-12.2 8.8-13.5c2.5-.6 5.3-.2 7.7 1.1z" fill="#c2e921"/><path d="m10.6 79.9h105c0 7.1-5.7 12.8-12.8 12.8h-79.4c-7 0-12.8-5.8-12.8-12.8z" fill="#dff3ff"/><path d="m49.6 48c-17.6 0-31.9 14.3-31.9 31.9h74.8c-6.7 0-11.4-6.1-12.3-8.9-4-13.7-16.5-23-30.6-23z" fill="#ffcdbe"/><g fill="#2f4343"><path d="m115.6 78.1h-16c.6-.6 1.1-1.3 1.5-2.1 2.8-5.2.9-11.6-4.3-14.5-.4-.2-.8-.4-1.2-.6.7-6.6-4.1-12.6-10.7-13.3-1.5-.2-3 0-4.5.4-.4-1.2-1-2.3-1.7-3.3 14.7 2.3 26.3 13.6 29.2 28.1.2.8.9 1.4 1.7 1.4h.3c.9-.2 1.6-1.1 1.4-2.1-3.4-17.4-18.2-30.3-36-31.3-.1 0-.2 0-.2 0-4.6-3.6-10.8-4.4-16.1-2.1-.8-.7-1.7-1.4-2.7-1.9-6.4-3.5-14.4-1.1-17.8 5.3-1.1 2-1.6 4.2-1.6 6.4-6.8 2.8-12.6 7.7-16.4 14-2.9-2.7-3.1-7.3-.3-10.1 1.2-1.3 2.8-2.1 4.6-2.3.7-.1 1.3 0 2 .1 1 .2 1.9-.4 2-1.4.5-3.2 2.9-5.9 6-6.8.9-.3 1.4-1.3 1.2-2.2-.3-.9-1.2-1.4-2.2-1.2-3.8 1.2-6.9 4.2-8.1 8-.4 0-.8 0-1.3 0-5.9.5-10.2 5.7-9.7 11.6.3 3 1.7 5.7 4.1 7.5-1.8 3.9-2.9 8.1-3.1 12.4h-5.3c-1 0-1.8.8-1.8 1.8 0 8 6.5 14.5 14.6 14.6h79.4c8 0 14.5-6.5 14.6-14.6.2-1-.6-1.8-1.6-1.8zm-73.9-34.2c2.5-4.7 8.4-6.4 13.1-3.9 1 .5 1.9 1.3 2.7 2.1.5.6 1.4.8 2.1.4 6.1-3.2 13.6-.9 16.9 5.2.5 1 .9 2 1.2 3.1.2.9 1.2 1.5 2.1 1.3.1 0 .2-.1.3-.1 4.3-2 9.4-.1 11.3 4.1.8 1.8 1 3.8.5 5.7-.2.9.3 1.9 1.3 2.1 3.9.9 6.3 4.7 5.5 8.6-.7 3.1-3.4 5.4-6.6 5.6-1.7-.1-3.4-.6-4.8-1.5-2-1.5-3-4-2.8-6.4.1-1-.6-1.8-1.6-1.9-.7-.1-1.3-.2-2-.4-6.2-16.2-23.7-25-40.4-20.4.2-1.3.6-2.5 1.2-3.6zm61.1 47h-79.4c-5.4 0-10.1-3.9-10.9-9.3h15.6c1 0 1.8-.8 1.8-1.8s-.8-1.8-1.8-1.8h-8.7c1-16.6 15.2-29.3 31.8-28.4 12.7.7 23.6 9.4 27.2 21.7 1 2.6 2.7 4.9 4.9 6.7h-40c-1 0-1.8.8-1.8 1.8s.8 1.8 1.8 1.8h48.3 22c-.7 5.4-5.3 9.3-10.8 9.3z"/><path d="m36.8 78.1h-1.4c-1 0-1.8.8-1.8 1.8s.8 1.8 1.8 1.8h1.4c1 0 1.8-.8 1.8-1.8s-.9-1.8-1.8-1.8z"/><path d="m37 71.8c0-1.4-1.2-2.6-2.6-2.6s-2.6 1.2-2.6 2.6 1.2 2.6 2.6 2.6c1.4.1 2.6-1.1 2.6-2.6z"/><path d="m49.2 65.7c1.7 0 3.1-1.4 3.1-3.1s-1.4-3.1-3.1-3.1-3.2 1.3-3.2 3c0 1.8 1.4 3.2 3.2 3.2z"/>
<path d="m67 72.7c1.7 0 3.1-1.4 3.1-3.1s-1.4-3.1-3.1-3.1-3.1 1.4-3.1 3.1 1.4 3.1 3.1 3.1z"/></g>
</svg>