<svg id="Capa_1" enable-background="new 0 0 512 512" height="512" viewBox="0 0 512 512" width="512" xmlns="http://www.w3.org/2000/svg"><g><g><path d="m210.061 7.5h-44.829c-12.792 0-23.162 10.37-23.162 23.162v38.533h91.153v-38.533c0-12.792-10.37-23.162-23.162-23.162z" fill="#dcdcdc"/><path d="m219.598 9.556c-2.909-1.317-6.136-2.056-9.537-2.056h-44.829c-12.792 0-23.162 10.37-23.162 23.162v38.533h30.872c13.242-22.042 28.944-42.077 46.656-59.639z" fill="#cececc"/><path d="m418.287 87.284c-5.531-22.205-25.474-37.789-48.357-37.789h-227.86c-22.883 0-42.826 15.584-48.357 37.789l-6.252 25.097 178.946 41.78 158.131-41.78z" fill="#60d9a7"/><path d="m266.408 154.161-195.527 41.781 40.837 258.026c4.606 29.103 29.694 50.533 59.159 50.533h170.246c29.465 0 54.553-21.43 59.159-50.533l40.837-258.026z" fill="#ed9b83"/><path d="m125.79 242.589c0-20.34 1.765-40.217 5.096-59.469l-60.005 12.822 40.837 258.026c4.606 29.103 29.694 50.532 59.159 50.532h82.74c-76.903-55.429-127.827-152.02-127.827-261.911z" fill="#e7886e"/><path d="m185.806 49.495h-43.736c-22.883 0-42.826 15.584-48.357 37.789l-6.252 25.097 58.513 13.662c10.016-27.719 23.486-53.46 39.832-76.548z" fill="#00cd8c"/><path d="m475.688 165.024-3.92-15.735c-5.402-21.687-24.88-36.908-47.23-36.908h-337.076c-22.35 0-41.827 15.221-47.23 36.908l-3.92 15.735c-3.913 15.71 7.971 30.918 24.161 30.918h391.054c16.19 0 28.074-15.208 24.161-30.918z" fill="#dcdcdc"/><path d="m402.395 257.156h-292.798c-20.775 0-36.632 18.565-33.385 39.084l12.791 80.812c2.599 16.423 16.757 28.516 33.385 28.516h267.222c16.628 0 30.786-12.094 33.385-28.518l12.785-80.812c3.246-20.519-12.611-39.082-33.385-39.082z" fill="#60d9a7"/><path d="m126.103 257.156h-16.505c-20.775 0-36.632 18.565-33.385 39.084l12.791 80.812c2.599 16.423 16.757 28.516 33.385 28.516h44.571c-23.969-43.536-38.622-94.159-40.857-148.412z" fill="#00cd8c"/><path d="m151.255 112.381h-63.793c-22.35 0-41.827 15.221-47.23 36.908l-3.92 15.735c-3.913 15.71 7.971 30.918 24.161 30.918h68.429c3.951-29.403 11.587-57.454 22.353-83.561z" fill="#cececc"/></g><g><path d="m163.917 300.048c-4.142 0-7.5 3.358-7.5 7.5v17.695c0 4.142 3.358 7.5 7.5 7.5s7.5-3.358 7.5-7.5v-17.695c0-4.142-3.358-7.5-7.5-7.5z"/><path d="m348.083 300.048c-4.142 0-7.5 3.358-7.5 7.5v17.695c0 4.142 3.358 7.5 7.5 7.5s7.5-3.358 7.5-7.5v-17.695c0-4.142-3.358-7.5-7.5-7.5z"/><path d="m285.205 319.062c-3.123-2.721-7.86-2.396-10.582.727-9.843 11.294-27.375 11.328-37.246 0-2.721-3.123-7.459-3.448-10.582-.727-3.123 2.722-3.448 7.459-.727 10.582 15.841 18.177 44.039 18.158 59.863 0 2.722-3.123 2.397-7.861-.726-10.582z"/><path d="m210.061 0h-44.829c-16.907 0-30.662 13.755-30.662 30.662v11.823c-23.126 3.023-42.371 19.849-48.135 42.986l-4.916 19.733c-23.28 2.45-42.803 19.137-48.566 42.271l-3.919 15.735c-2.427 9.743-.273 19.869 5.91 27.781 11.485 14.696 28.155 12.183 29.53 12.45l10.333 65.284c-5.41 8.457-7.593 18.632-6.001 28.687l12.791 80.812c1.645 10.393 6.995 19.311 14.581 25.526l8.133 51.39c5.214 32.947 33.21 56.86 66.567 56.86h170.247c33.357 0 61.352-23.913 66.567-56.86l8.134-51.392c7.585-6.216 12.934-15.134 14.579-25.526l12.785-80.812c1.59-10.05-.591-20.221-5.995-28.675l10.334-65.294c1.528-.297 17.894 2.441 29.53-12.45 6.183-7.912 8.336-18.038 5.909-27.781l-3.919-15.735c-5.763-23.134-25.286-39.82-48.565-42.271l-4.916-19.733c-6.376-25.599-29.255-43.477-55.635-43.477h-33.203c-4.142 0-7.5 3.358-7.5 7.5s3.358 7.5 7.5 7.5h33.199c19.479 0 36.372 13.201 41.08 32.102l3.932 15.784h-317.882l3.932-15.784c4.708-18.901 21.601-32.102 41.079-32.102h164.66c4.142 0 7.5-3.358 7.5-7.5s-3.358-7.5-7.5-7.5h-66.007v-11.332c0-16.907-13.755-30.662-30.662-30.662zm182.814 452.795c-4.054 25.614-25.819 44.205-51.752 44.205h-170.246c-25.933 0-47.698-18.591-51.751-44.205l-6.469-40.874c10.522 2.511 3.421.369 276.954 1.146 3.115 0 6.498-.374 9.734-1.147zm35.497-157.729-12.785 80.812c-2.036 12.87-12.996 22.19-25.977 22.19-284.591 0-269.565.57-275.317-1.281-9.647-3.127-16.344-11.189-17.882-20.907 0 0-12.791-80.813-12.791-80.817-2.491-15.755 10.029-30.407 25.977-30.407h292.797c15.893 0 28.453 14.764 25.978 30.41zm-3.833-175.185c18.944 0 35.373 12.838 39.952 31.221l3.92 15.735c2.734 10.972-5.558 21.604-16.883 21.604-16.307 0-258.686 0-270.138 0-4.142 0-7.5 3.358-7.5 7.5s3.358 7.5 7.5 7.5h250.951l-8.28 52.318c-6.552-4.048-14.216-6.103-21.664-6.103-312.055.037-293.624-.205-297.893.326-5.713.692-11.456 2.62-16.561 5.772l-8.279-52.313h71.727c4.142 0 7.5-3.358 7.5-7.5s-3.358-7.5-7.5-7.5c-7.861 0-79.447 0-90.916 0-11.306 0-19.621-10.616-16.883-21.604l3.919-15.735c4.579-18.382 21.008-31.221 39.953-31.221h337.075zm-274.969-77.886v-11.333c0-8.636 7.026-15.662 15.662-15.662h44.829c8.636 0 15.662 7.026 15.662 15.662v11.333z"/></g></g></svg>