<svg id="Capa_1" enable-background="new 0 0 512 512" height="512" viewBox="0 0 512 512" width="512" xmlns="http://www.w3.org/2000/svg"><g><g><path d="m416.996 350.987-160.996-39.099-160.996 39.099c-21.594 0-39.099 17.505-39.099 39.099 0 21.594 17.505 39.099 39.099 39.099l160.996 37.657 160.996-37.658c21.594 0 39.099-17.505 39.099-39.099-.001-21.593-17.506-39.098-39.099-39.098z" fill="#e7886e"/><path d="m117.687 345.478-22.682 5.509c-21.594 0-39.099 17.505-39.099 39.099 0 21.594 17.505 39.099 39.099 39.099l93.376 21.841c-30.538-28.992-54.864-64.989-70.694-105.548z" fill="#e27858"/><path d="m416.996 272.789h-321.992c-21.594 0-39.099 17.505-39.099 39.099 0 21.594 17.505 39.099 39.099 39.099h321.991c21.594 0 39.099-17.505 39.099-39.099 0-21.594-17.505-39.099-39.098-39.099z" fill="#ff6f7f"/><path d="m448.096 429.185h-384.192c-13.868 0-23.951 13.172-20.33 26.559 7.782 28.773 33.888 48.756 63.695 48.756h297.463c29.807 0 55.913-19.983 63.695-48.756 3.62-13.388-6.463-26.559-20.331-26.559z" fill="#ffca8a"/><path d="m155.964 256.493 61.012 95.875c8.491 13.342 23.21 21.422 39.024 21.422 15.815 0 30.534-8.08 39.024-21.422l61.012-95.875z" fill="#f9ed80"/><path d="m99.406 272.789h-4.401c-21.594 0-39.099 17.505-39.099 39.099 0 21.594 17.505 39.099 39.099 39.099h24.893c-10.136-24.507-17.153-50.751-20.492-78.198z" fill="#fc5c70"/>
<path d="m414.836 199.854h-317.672c-28.15 0-50.97 22.82-50.97 50.97 0 17.88 10.173 34.202 26.226 42.077 16.542 8.115 35.909 8.115 52.452 0 16.542-8.115 35.909-8.115 52.452 0 16.542 8.115 35.909 8.115 52.452 0 16.542-8.115 35.909-8.115 52.452 0 16.542 8.115 35.909 8.115 52.452 0 16.542-8.115 35.909-8.115 52.452 0 16.542 8.115 35.909 8.115 52.452 0 16.052-7.875 26.226-24.197 26.226-42.077-.003-28.15-22.823-50.97-50.974-50.97z" fill="#60d9a7"/>
<path d="m97.17 235.757c0-12.157.725-24.137 2.112-35.903h-2.119c-28.15 0-50.97 22.82-50.97 50.97 0 17.88 10.173 34.202 26.226 42.077 9.837 4.826 20.672 6.758 31.319 5.844-4.288-20.285-6.568-41.357-6.568-62.988z" fill="#00cd8c"/>
<path d="m468.531 159.493c-6.298-50.052-40.268-151.993-212.531-151.993s-206.233 101.941-212.531 151.993c-1.917 15.238.511 30.701 6.968 44.636 13.426 28.973 42.452 47.514 74.385 47.514h262.355c31.932 0 60.959-18.541 74.385-47.514 6.458-13.935 8.886-29.397 6.969-44.636z" fill="#ffca8a"/>
<path d="m97.17 235.757c0-90.007 39.148-170.457 100.619-223.797-122.093 20.161-148.808 103.724-154.32 147.533-1.917 15.239.511 30.701 6.968 44.636 9.425 20.34 26.545 35.527 46.956 42.778-.133-3.701-.223-7.415-.223-11.15z" fill="#ffbe73"/>
<g><g><g>
<ellipse cx="147.284" cy="140.55" fill="#ff8997" rx="40.114" ry="31.945"/></g><g><ellipse cx="364.716" cy="140.55" fill="#ff8997" rx="40.114" ry="31.945"/></g></g></g>
<path d="m167.699 429.185h-103.795c-13.868 0-23.951 13.171-20.33 26.559 7.782 28.773 33.888 48.756 63.695 48.756h161.777c-39.065-16.911-73.637-42.844-101.347-75.315z" fill="#ffbe73"/>
</g><g>
<path d="m41.225 432.885c-5.449 7.118-7.231 16.164-4.891 24.816 8.647 31.97 37.816 54.299 70.935 54.299h297.463c33.119 0 62.288-22.329 70.934-54.298 2.341-8.653.558-17.698-4.89-24.816-4.843-6.327-11.915-10.248-19.722-11.043 7.771-8.329 12.541-19.494 12.541-31.757 0-16.37-8.492-30.785-21.294-39.099 20.949-13.604 27.258-40.897 15.281-61.989 19.519-19.875 20.367-49.82 5.232-71.559 11.291-17.831 15.701-38.678 13.159-58.881-3.401-27.032-14.157-66.161-46.088-99.054-38.328-39.484-96.832-59.504-173.885-59.504-61.269 0-111.137 12.791-148.22 38.017-3.425 2.33-4.313 6.995-1.983 10.419 2.33 3.425 6.995 4.313 10.419 1.983 34.55-23.502 81.58-35.419 139.784-35.419 72.844 0 127.726 18.488 163.121 54.951 29.043 29.918 38.853 65.716 41.968 90.479 5.612 44.587-29.482 83.713-73.911 83.713-289.181-.587-267.263 1.773-283.545-3.103-34.872-10.415-57.275-44.426-52.722-80.61 3.17-25.201 13.237-61.566 43.185-91.698 2.92-2.938 2.906-7.687-.032-10.606-2.938-2.92-7.686-2.905-10.606.032-32.928 33.129-43.967 72.884-47.429 100.4-2.546 20.244 1.891 41.086 13.159 58.882-15.096 21.682-14.333 51.636 5.232 71.558-3.946 6.948-6.014 14.742-6.014 22.891 0 16.37 8.492 30.784 21.294 39.099-12.802 8.314-21.294 22.729-21.294 39.099 0 12.263 4.769 23.428 12.541 31.757-7.808.793-14.879 4.714-19.722 11.041zm375.771-89.399h-107.43s27.683-43.501 27.683-43.501c14.817-6.947 31.689-7.654 46.577-.351 19.836 9.731 43.533 8.795 61.685-1.38 9.965 20.703-5.161 45.232-28.515 45.232zm-193.693 4.854c-8.733-13.724-18.171-28.554-26.878-42.235 12.873 1.386 25.599-1.048 36.652-6.471 14.354-7.041 31.492-7.041 45.845 0 11.271 5.529 24.001 7.833 36.652 6.471l-26.877 42.236c-15.29 24.026-50.236 23.823-65.394-.001zm-164.383-118.166c10.553 11.476 23.7 19.708 37.63 24.351 19.064 6.372 22.968 4.596 290.628 4.617 23.911 0 48.269-9.793 65.901-28.968 10.314 19.084 4.871 41.598-11.936 53.144-13.571 9.237-33.764 11.162-50.711 2.849-17.37-8.522-38.763-9.683-59.608.25-14.254 6.668-31.125 6.703-45.296-.25-18.394-9.025-40.506-9.101-59.058 0-13.271 6.512-29.422 7.167-43.617 1.012-.958-.225-29.088-16.809-61.286-1.012-16.995 8.337-37.27 6.349-50.711-2.849-16.811-11.549-22.247-34.061-11.936-53.144zm7.568 68.08c18.051 10.117 41.742 11.163 61.686 1.38 13.361-6.553 29.602-7.603 46.576.351l27.684 43.502h-107.43c-23.346-.001-38.484-24.52-28.516-45.233zm-13.352 143.748c2.587-3.379 6.512-5.318 10.768-5.318h31.101 230.202c4.142 0 7.5-3.358 7.5-7.5s-3.358-7.5-7.5-7.5h-230.203c-17.424 0-31.599-14.175-31.599-31.599s14.175-31.599 31.599-31.599h117.044c21.358 30.446 66.558 30.348 87.903 0h117.044c17.423 0 31.599 14.175 31.599 31.599s-14.175 31.599-31.599 31.599h-61.789c-4.142 0-7.5 3.358-7.5 7.5s3.358 7.5 7.5 7.5h61.789 31.1c4.256 0 8.182 1.938 10.769 5.318 2.587 3.379 3.433 7.674 2.322 11.782-6.881 25.445-30.097 43.216-56.454 43.216h-297.463c-26.358 0-49.573-17.771-56.455-43.215-1.111-4.108-.265-8.403 2.322-11.783z"/>
<path d="m178.162 109.799v-16.399c0-4.142-3.358-7.5-7.5-7.5s-7.5 3.358-7.5 7.5v16.398c0 4.142 3.358 7.5 7.5 7.5s7.5-3.357 7.5-7.499z"/>
<path d="m348.837 109.799v-16.399c0-4.142-3.358-7.5-7.5-7.5s-7.5 3.358-7.5 7.5v16.398c0 4.142 3.358 7.5 7.5 7.5s7.5-3.357 7.5-7.499z"/><path d="m284.153 114.238c2.721-3.123 2.396-7.86-.727-10.582-3.123-2.721-7.86-2.396-10.582.727-8.904 10.217-24.76 10.246-33.689 0-2.721-3.124-7.459-3.448-10.582-.727s-3.448 7.459-.727 10.582c14.899 17.097 41.423 17.078 56.307 0z"/></g></g></svg>