<svg height="512pt" viewBox="0 -12 512 512" width="512pt" xmlns="http://www.w3.org/2000/svg"><path d="m362.992188 7.5h-213.984376c-60.636718 0-109.789062 49.152344-109.789062 109.785156v96.003906h433.5625v-96.003906c0-60.632812-49.152344-109.785156-109.789062-109.785156zm0 0" fill="#76e7e7"/><path d="m164.449219 167.113281c0 25.503907-20.675781 46.175781-46.175781 46.175781-25.503907 0-46.175782-20.671874-46.175782-46.175781 0-25.5 20.671875-46.175781 46.175782-46.175781 25.5 0 46.175781 20.675781 46.175781 46.175781zm0 0" fill="#fb695b"/><path d="m439.902344 167.113281c0 25.503907-20.671875 46.175781-46.175782 46.175781-25.5 0-46.175781-20.671874-46.175781-46.175781 0-25.5 20.675781-46.175781 46.175781-46.175781 25.503907 0 46.175782 20.675781 46.175782 46.175781zm0 0" fill="#fb695b"/><path d="m319.085938 479.671875h-126.171876c-21.195312 0-38.375-17.179687-38.375-38.375v-40.269531h202.921876v40.269531c0 21.195313-17.179688 38.375-38.375 38.375zm0 0" fill="#00d2ce"/><path d="m336.507812 433.867188h-161.019531c-75.257812 0-136.269531-61.011719-136.269531-136.273438v-69.515625h433.5625v69.515625c0 75.261719-61.011719 136.273438-136.273438 136.273438zm0 0" fill="#76e7e7"/><path d="m203.535156 301.050781c46.585938-11.007812 70.875-32.234375 70.875-32.234375v-40.738281h-235.191406v69.515625c0 75.261719 61.011719 136.273438 136.269531 136.273438h60.277344c-34.835937-14.15625-54.8125-39.441407-66.226563-63.710938-13.394531-28.488281 3.359376-61.863281 33.996094-69.105469zm0 0" fill="#2eddda"/><path d="m135.710938 203.605469c-12.371094-12.375-16.179688-29.796875-12.339844-45.660157 4.160156-17.15625-11.386719-34.785156-12.351563-35.898437-15.277343-17.726563-15.191406-44.460937.203125-62.089844 18.273438-20.917969 50.085938-21.722656 69.394532-2.410156.160156.160156 14.453124 13.777344 33.816406 9.753906 15.78125-3.277343 32.871094.253907 45.097656 12.480469 13.441406 13.441406 17.128906 32.933594 11.085938 49.703125 0 0-14.949219 41.945313 10.011718 66.90625l-28.308594 28.308594c-24.964843-24.960938-66.90625-10.011719-66.90625-10.011719-16.773437 6.046875-36.261718 2.355469-49.703124-11.082031zm0 0" fill="#29ce69"/><path d="m182.84375 134.171875c-1.957031 31.378906-9.914062 61.328125-29.734375 80.507813 10.414063 3.761718 21.882813 3.765624 32.300781.007812 0 0 41.945313-14.949219 66.90625 10.011719l28.3125-28.308594c-24.964844-24.960937-10.015625-66.90625-10.015625-66.90625 6.046875-16.769531 2.359375-36.261719-11.082031-49.703125-12.226562-12.226562-29.320312-15.757812-45.097656-12.480469 0 0-28.75 21.261719-31.589844 66.871094zm0 0" fill="#00c140"/><path d="m255.867188 221.152344-100.644532-100.644532c-5.859375-5.859374-5.859375-15.355468 0-21.214843 5.855469-5.855469 15.355469-5.855469 21.210938 0l100.648437 100.644531zm0 0" fill="#00a62c"/><path d="m376.289062 203.605469c12.371094-12.375 16.179688-29.796875 12.339844-45.660157-4.160156-17.15625 11.386719-34.785156 12.351563-35.898437 15.277343-17.726563 15.191406-44.460937-.203125-62.089844-18.273438-20.917969-50.085938-21.722656-69.394532-2.410156-.160156.160156-14.453124 13.777344-33.816406 9.753906-15.78125-3.277343-32.871094.253907-45.097656 12.480469-13.441406 13.441406-17.128906 32.933594-11.085938 49.703125 0 0 14.949219 41.945313-10.011718 66.90625l28.308594 28.308594c24.964843-24.960938 66.90625-10.011719 66.90625-10.011719 16.773437 6.046875 36.261718 2.355469 49.703124-11.082031zm0 0" fill="#73da8c"/><path d="m234.917969 199.941406 100.648437-100.648437c5.855469-5.855469 15.355469-5.855469 21.210938 0 5.859375 5.859375 5.859375 15.355469 0 21.214843l-100.644532 100.644532zm0 0" fill="#00c140"/><path d="m463.757812 268.816406h-415.515624c-22.5 0-40.742188-18.238281-40.742188-40.738281 0-22.503906 18.238281-40.742187 40.742188-40.742187h415.515624c22.503907 0 40.742188 18.238281 40.742188 40.742187 0 22.5-18.238281 40.738281-40.742188 40.738281zm0 0" fill="#b0f0ef"/><path d="m256 376.042969c-15.519531 0-28.101562-12.578125-28.101562-28.097657v-20.429687c0-4.238281 3.4375-7.671875 7.671874-7.671875h40.859376c4.238281 0 7.671874 3.433594 7.671874 7.671875v20.429687c-.003906 15.519532-12.582031 28.097657-28.101562 28.097657zm0 0" fill="#454545"/><path d="m191.976562 347.941406c0-13.179687-13.417968-23.867187-29.972656-23.867187-16.554687 0-29.972656 10.6875-29.972656 23.867187 0 13.183594 13.417969 23.871094 29.972656 23.871094 16.554688 0 29.972656-10.6875 29.972656-23.871094zm0 0" fill="#fdb2db"/><path d="m379.96875 347.941406c0-13.179687-13.417969-23.867187-29.972656-23.867187-16.554688 0-29.972656 10.6875-29.972656 23.867187 0 13.183594 13.417968 23.871094 29.972656 23.871094 16.554687 0 29.972656-10.6875 29.972656-23.871094zm0 0" fill="#fdb2db"/><path d="m336.65625 307.390625c-4.140625 0-7.5 3.355469-7.5 7.5v12.449219c0 4.144531 3.359375 7.5 7.5 7.5 4.144531 0 7.5-3.355469 7.5-7.5v-12.449219c0-4.144531-3.355469-7.5-7.5-7.5zm0 0"/><path d="m175.34375 307.390625c-4.144531 0-7.5 3.355469-7.5 7.5v12.449219c0 4.144531 3.355469 7.5 7.5 7.5 4.140625 0 7.5-3.355469 7.5-7.5v-12.449219c0-4.144531-3.359375-7.5-7.5-7.5zm0 0"/><path d="m512 228.078125c0-20.800781-13.230469-38.566406-31.71875-45.324219v-65.464844c0-64.675781-52.617188-117.289062-117.289062-117.289062h-213.984376c-36.183593 0-69.785156 16.320312-92.199218 44.78125-2.5625 3.253906-2 7.96875 1.253906 10.53125s7.96875 2 10.53125-1.253906c19.550781-24.820313 48.855469-39.058594 80.414062-39.058594h213.984376c56.402343 0 102.289062 45.886719 102.289062 102.285156v62.589844c-.507812-.015625-19.433594-.039062-19.433594-.039062 3.296875-13.507813 1.277344-27.894532-5.960937-40.101563-6.15625-10.386719-15.507813-18.25-26.523438-22.574219 10.585938-19.734375 8.265625-44.730468-6.9375-62.136718-10.167969-11.636719-24.234375-18.332032-39.609375-18.851563-15.117187-.5-29.921875 5.308594-40.65625 15.984375-.652344.601562-12.226562 10.886719-27.066406 7.800781-15.402344-3.199219-30.804688-.417969-43.066406 7.429688-12.285156-7.902344-27.769532-10.621094-43.117188-7.429688-14.832031 3.078125-26.386718-7.175781-27.066406-7.796875-10.722656-10.671875-25.542969-16.511718-40.65625-15.988281-15.378906.519531-29.445312 7.214844-39.609375 18.851563-15.191406 17.390624-17.523437 42.363281-6.933594 62.132812-11.019531 4.320312-20.378906 12.1875-26.539062 22.578125-7.238281 12.207031-9.257813 26.59375-5.960938 40.101563 0 0-18.917969.023437-19.425781.039062v-62.589844c0-13.8125 2.703125-27.207031 8.035156-39.8125 1.613282-3.8125-.171875-8.214844-3.984375-9.828125-3.816406-1.613281-8.214843.171875-9.828125 3.984375-6.121094 14.464844-9.222656 29.824219-9.222656 45.65625v65.464844c-18.488281 6.761719-31.71875 24.527344-31.71875 45.328125 0 20.796875 13.230469 38.5625 31.71875 45.324219v24.191406c0 69.539062 49.625 127.699219 115.320312 140.941406 0 0 1.0625 48.636719 45.875 48.636719h126.171876c46.515624 0 45.875-48.636719 45.875-48.636719 65.695312-13.242187 115.320312-71.402344 115.320312-140.941406v-24.191406c18.488281-6.761719 31.71875-24.527344 31.71875-45.324219zm-215.960938-153.433594c23.699219 4.933594 40.492188-11.640625 40.644532-11.792969 7.914062-7.914062 18.425781-12.066406 29.625-11.6875 11.183594.378907 21.417968 5.253907 28.820312 13.730469 12.972656 14.851563 13.046875 37.316407.132813 52.296875-3.972657 4.585938-16.769531 20.9375-14.59375 38.820313.5 4.113281 4.261719 7.03125 8.351562 6.539062 4.113281-.5 7.039063-4.238281 6.539063-8.351562-1.136719-9.363281 5.097656-19.351563 8.742187-24.28125 9.480469 2.691406 17.597657 8.886719 22.6875 17.46875 5.855469 9.875 6.976563 21.730469 3.242188 32.449219h-122.175781l54.027343-54.027344c4.25-4.246094 11.109375-20.707032 0-31.820313-8.773437-8.769531-23.046875-8.769531-31.820312 0l-78.367188 78.371094c4.492188-22.582031-3.039062-44.253906-3.453125-45.417969-5.234375-14.519531-1.574218-30.949218 9.332032-41.851562 9.675781-9.683594 23.617187-13.484375 38.265624-10.445313zm-70.878906 105.191407-64.636718-64.632813c-1.414063-1.417969-4.039063-6.566406 0-10.605469 4.039062-4.039062 9.191406-1.417968 10.605468 0l65.855469 65.855469c-.699219 3.175781-1.71875 6.332031-3.128906 9.382813zm40.46875 0 75.238282-75.238282c2.925781-2.925781 7.683593-2.925781 10.609374 0 3.890626 3.894532 1.414063 9.1875-.003906 10.605469l-64.632812 64.632813zm-148.757812-114.941407c7.402344-8.476562 17.640625-13.351562 28.820312-13.730469 11.171875-.359374 21.710938 3.773438 29.609375 11.671876.164063.167968 16.964844 16.730468 40.65625 11.808593 9.917969-2.058593 19.820313-.878906 28.128907 3.195313-12.574219 14.878906-16.4375 35.660156-9.769532 54.164062.054688.148438 2.738282 7.871094 3.695313 18.261719l-56.273438-56.277344c-8.773437-8.769531-23.046875-8.769531-31.820312 0-12.679688 12.683594-4.25 27.574219 0 31.820313l54.023437 54.027344h-73.3125c-1.605468-6.492188-1.605468-13.359376.03125-20.121094 4.648438-19.179688-9.480468-37.394532-13.960937-42.566406-12.875-14.9375-12.800781-37.402344.171875-52.253907zm-31.863282 82.492188c5.089844-8.585938 13.207032-14.78125 22.695313-17.472657 3.875 5.238282 10.785156 16.339844 8.382813 26.265626-1.914063 7.898437-2.167969 15.921874-.785157 23.65625h-33.539062c-3.730469-10.71875-2.609375-22.574219 3.246093-32.449219zm264.953126 293.910156c0 17.023437-13.851563 30.875-30.875 30.875h-126.171876c-17.023437 0-30.875-13.851563-30.875-30.875v-.5625c4.429688.410156 183.492188.410156 187.921876 0zm113.796874-179.980469h-27.484374c-4.140626 0-7.5 3.359375-7.5 7.5 0 4.144532 3.359374 7.5 7.5 7.5 0 0 28.5-.023437 29.007812-.039062v21.316406c0 71.007812-57.765625 128.773438-128.769531 128.773438h-161.023438c-71.003906 0-128.769531-57.769532-128.769531-128.773438v-21.316406c.507812.015625 358.078125.039062 358.078125.039062 4.144531 0 7.5-3.355468 7.5-7.5 0-4.140625-3.355469-7.5-7.5-7.5h-356.554687c-18.332032 0-33.242188-14.910156-33.242188-33.238281 0-18.332031 14.910156-33.242187 33.242188-33.242187h415.515624c18.332032 0 33.242188 14.910156 33.242188 33.242187 0 18.328125-14.910156 33.238281-33.242188 33.238281zm0 0"/><path d="m276.429688 312.34375h-40.859376c-8.367187 0-15.171874 6.804688-15.171874 15.171875v20.429687c0 19.628907 15.972656 35.601563 35.601562 35.601563s35.601562-15.972656 35.601562-35.601563v-20.429687c0-8.367187-6.804687-15.171875-15.171874-15.171875zm.171874 35.597656c0 11.359375-9.242187 20.601563-20.601562 20.601563s-20.601562-9.238281-20.601562-20.601563v-20.429687c0-.09375 41.03125-.167969 41.03125-.167969.09375 0 .171874 20.597656.171874 20.597656zm0 0"/></svg>